/* XPM */
static char *a372daaf978843edb211807f3b51189bYG4P1YAGzcqj9PVJ[] = {
/* columns rows colors chars-per-pixel */
"64 64 114 2 ",
"   c black",
".  c #010101",
"X  c #020202",
"o  c gray1",
"O  c #040404",
"+  c gray2",
"@  c #060606",
"#  c #070707",
"$  c gray3",
"%  c #090909",
"&  c gray4",
"*  c #0B0B0B",
"=  c #0C0C0C",
"-  c #0E0E0E",
";  c #131313",
":  c gray8",
">  c #151515",
",  c #161616",
"<  c gray9",
"1  c #181818",
"2  c #191919",
"3  c gray10",
"4  c #1B1B1B",
"5  c gray11",
"6  c #1D1D1D",
"7  c #1E1E1E",
"8  c gray12",
"9  c #202020",
"0  c gray13",
"q  c #222222",
"w  c gray14",
"e  c gray15",
"r  c #272727",
"t  c #282828",
"y  c gray16",
"u  c #2A2A2A",
"i  c #2D2D2D",
"p  c gray18",
"a  c #2F2F2F",
"s  c gray19",
"d  c #313131",
"f  c #323232",
"g  c gray20",
"h  c #343434",
"j  c #353535",
"k  c gray21",
"l  c #373737",
"z  c gray22",
"x  c #393939",
"c  c #3A3A3A",
"v  c gray23",
"b  c #3C3C3C",
"n  c gray24",
"m  c #3E3E3E",
"M  c #3F3F3F",
"N  c gray26",
"B  c #444444",
"V  c gray27",
"C  c #464646",
"Z  c #4B4B4B",
"A  c gray30",
"S  c #505050",
"D  c gray33",
"F  c gray34",
"G  c #585858",
"H  c gray35",
"J  c #5A5A5A",
"K  c #5B5B5B",
"L  c gray36",
"P  c #5D5D5D",
"I  c gray37",
"U  c #5F5F5F",
"Y  c #606060",
"T  c gray38",
"R  c #626262",
"E  c gray39",
"W  c #646464",
"Q  c #656565",
"!  c #676767",
"~  c #686868",
"^  c gray42",
"/  c #6D6D6D",
"(  c gray43",
")  c #6F6F6F",
"_  c gray44",
"`  c #717171",
"'  c #727272",
"]  c gray45",
"[  c #747474",
"{  c #767676",
"}  c gray47",
"|  c #797979",
" . c gray48",
".. c #7B7B7B",
"X. c #7C7C7C",
"o. c gray49",
"O. c #7E7E7E",
"+. c gray50",
"@. c #808080",
"#. c #818181",
"$. c gray51",
"%. c #838383",
"&. c #848484",
"*. c gray52",
"=. c #868686",
"-. c gray53",
";. c #888888",
":. c #898989",
">. c gray54",
",. c #8B8B8B",
"<. c gray55",
"1. c #8D8D8D",
"2. c #8E8E8E",
"3. c gray56",
/* pixels */
"@.@.@.@.@.@.@.@.O.O.@.*. .O.;. .*. .@.@.O.*.@.@.O.@.@.@.O.O.O.O.@.@.@.@.@.@.@.@.@.@.@.@.@.@.@.@. .;.@. .@.*.O.O.@.@.@.@.@.@.@.@.",
"@.@.@.@.@.@.@.@.O.O.@.*. .O.;.{ G N M c c M c c c M M M M c M M c c M M M M c M M c M M M M c c V ` *.@.@.O.O.*.@.@.@.@.@.@.@.@.",
"@.@.@.@.@.@.@.@.@.@.O.@.O.@.;.) k , & X X = O X X X X X X X X X X X X X X X X X X X X X X X X X 7 E ;.*.@.O.O.*.@.@.@.@.@.@.@.@.",
"@.@.@.@.@.@.@.@.@.@.O.@.@.*.*.~ u & X X X X X X X X O X X X X X X X X X X X X X X X X X X X X X 3 E ;.*.@.*.@.@.@.@.@.@.@.@.@.@.",
"@.@.@.@.@.@.@.@.@.@.O.@.@.*.*.Q 7 X X X X X X X X X X X X X X X X X X X X X X X X X X X X X X X 3 E ;.@.@.*.@.O.@.@.@.@.@.@.@.@.",
"@.@.@.@.@.@.@.@.@.@.O.@.@.*.*.E , X X X X X X X X X X X X X X X X X X X X X X X X X X X X X X X ; L ;.*.@.O.O.@.@.@.@.@.@.@.@.@.",
"@.@.@.@.@.@.@.@.@.@.O.@.O.*.*.E 3 X X O X X X O X X X X X X X X X X X X X X X X X X X X X X X X 9 E ;.*.@.O.O.*.@.@.@.@.@.@.@.@.",
"@.@.@.@.@.@.@.@.O.@.O.@.O.*.*.Q 7 X X X X O X O u u a a a a f f a f f f f f f f a a f f f a a a M ) ;.@.@.@.O.@.@.@.@.@.@.@.@.@.",
"@.@.@.@.@.@.@.@.@.@.O.@.O.*.*.Q 3 X X X X X X 7 S  . .` ` {  . .{ { { { { { { { { { { { { { { { @.@.@.@.@.@.@.@.@.@.@.@.@.@.@.@.",
"@.@.@.@.@.@.@.@.@.@.O.@.O.*.*.Q 3 X X X X X O 7 E <.<.*.;.;.<.;.;.;.;.;.;.;.;.;.;.;.;.;.;.;.;.;.@.@.@.@.@.@.@.@.@.@.@.@.@.@.@.@.",
"@.@.@.@.@.@.@.@.@.@.O.@.O.*.*.Q 3 X X X X X O 9 L *.;.@.*.@.*.@.@.@.@.@.@.@.@.@.@.@.@.@.@.@.@.@.@.@.@.@.@.@.@.@.@.@.@.@.@.@.@.@.",
"@.@.@.@.@.@.@.@.@.@.O.@.O.*.*.Q 3 X X X X X O 7 G @.;.@.@.O.@.O.O.O.O.O.@.@.O.O.O.O.@.@.@.O.O.O.@.@.@.@.@.@.@.@.@.@.@.@.@.@.@.@.",
"@.@.@.@.@.@.@.@.@.@.O.@.O.*.*.Q , X X O O X X 3 L *.;.*.*.@.@.O.@.@.@.@.@.@.@.@.@.@.@.@.@.@.@.@.@.@.@.@.@.@.@.@.@.@.@.@.@.@.@.@.",
"@.@.@.@.@.@.@.@.@.@.O.@.O.*.*.Q , X X O O X X , G @.*.O.@.O.O.O.O.O.O.O.O.O.O.O.O.O.O.O.O.O.O.O.@.@.@.@.@.@.@.@.@.@.@.@.@.@.@.@.",
"@.@.@.@.@.@.@.@.@.@.O.@.O.*.*.Q 3 X X X X X X 3 L *.;.@.@.@.*.@.@.@.@.@.@.@.@.@.@.@.@.@.@.@.@.@.@.@.@.@.@.@.@.@.@.@.@.@.@.@.@.@.",
"@.@.@.@.@.@.@.@.@.@.O.@.O.*.*.Q 3 X X X X X O 7 L *.*.O.O.O.@.@.@.@.@.@.@.@.@.@.@.@.@.@.@.@.@.@.@.@.@.@.@.@.@.@.@.@.@.@.@.@.@.@.",
"@.@.@.@.@.@.@.@.@.@.O.@.O.*.*.Q 3 X X X X X X 3 G @.*.O.@.O.O.O.@.@.O.@.@.@.@.O.O.@.*.@.O.O.@.@.@.@.@.@.@.@.@.@.@.@.@.@.@.@.@.@.",
"@.@.@.@.@.@.@.@.@.@.O.@.O.*.*.Q 3 X X X X X O 7 G *.*.@.@.O.@.O.O.O.O.@.@.@.@.O.@.@.@.O.O.@.@.O.@.@.@.@.@.@.@.@.@.@.@.@.@.@.@.@.",
"@.@.@.@.@.@.@.@.@.@.O.@.O.*.*.Q 3 X X X X X O 7 G *.;.@.@.@.@.@.O.O.O.@.@.@.@.@.@.@.@.O.O.@.@.O.@.@.@.@.@.@.@.@.@.@.@.@.@.@.@.@.",
"@.@.@.@.@.@.@.@.@.@.O.@.O.*.*.Q 3 X X X X X O 7 G @.*.@.@.@.@.@.@.@.O.@.@.@.@.O.@.@.O.O.O.@.@.O.@.@.@.@.@.@.@.@.@.@.@.@.@.@.@.@.",
"@.@.@.@.@.@.@.@.@.@.O.@.O.*.*.Q 3 X X X X X O 7 F @.*.O.@.O.@.O.@.@.@.@.@.@.O.O.@.@.O.O.O.@.@.O.@.@.@.@.@.@.@.@.@.@.@.@.@.@.@.@.",
"@.@.@.@.@.@.@.@.@.@.O.@.O.*.*.Q 3 X X X X X O 7 G @.*.O.@.O.@.O.@.@.@.@.@.@.O.O.@.@.@.O.O.@.@.O.@.@.@.@.@.@.@.@.@.@.@.@.@.@.@.@.",
"@.@.@.@.@.@.@.@.@.@.O.@.O.*.*.Q 7 X X X X X O 7 G @.*.O.@.O.@.O.@.O.O.@.@.@.@.O.O.@.@.O.O.@.@.@.@.@.@.@.@.@.@.@.@.@.@.@.@.@.@.@.",
"@.@.@.@.@.@.@.@.@.@.O.@.O.*.*.Q 7 O X X X X X 7 G *.;.@.@.O.@.O.O.O.O.@.@.@.@.@.O.@.@.O.O.O.@.@.@.@.@.@.@.@.@.@.@.@.@.@.@.@.@.@.",
"@.@.@.@.@.@.@.@.@.@.O.@.O.*.*.Q 7 X X O X X O 3 G ;.;.O.@.O.@.@.@.@.@.@.@.O.O.O.@.O.@.*.@. .O.*.@.@.@.@.@.@.@.@.@.@.@.@.@.@.@.@.",
"@.@.@.@.@.@.@.@.@.@.O.@.O.*.*.Q 7 X X X X X & 7 F *.;.O.@.@.@.@.@.@.@.@.@.@.@.O.O.O.@.*.@.O.O.O.@.@.@.@.@.@.@.@.@.@.@.@.@.@.@.@.",
"@.@.@.@.@.@.@.@.@.@.O.@.O.*.*.Q 7 X X X X X & 7 L *.<.*.;.;.;.*.*.*.*.*.*.;.;.*.;.<.<.;.;.*.@.O.@.@.@.@.@.@.@.@.@.@.@.@.@.@.@.@.",
"@.@.@.@.@.@.@.@.@.@.O.@.O.*.*.Q 7 X X X X O & 3 L  .O.O.O. .O. . . . . . .O.O. . .O. .`  .*.;.@.@.@.@.@.@.@.@.@.@.@.@.@.@.@.@.@.",
"@.@.@.@.@.@.@.@.@.@.O.@.O.*.*.Q 3 X X X X X X = r c c c c k c k k k k k k k c c k c k f Z ` *.@.@.@.@.@.@.@.@.@.@.@.@.@.@.@.@.@.",
"@.@.@.@.@.@.@.@.@.@.O.@.O.*.*.Q 3 X X X X X X X X O X X X X X X X X X X X X X X X & X X r Q @.@.@.@.@.@.@.@.@.@.@.@.@.@.@.@.@.@.",
"@.@.@.@.@.@.@.@.@.@.O.@.O.*.*.Q 7 X X X X X X X X O X O X X O X X X X X X X X X X X X X 9 Q ;.@.@.@.@.@.@.@.@.@.@.@.@.@.@.@.@.@.",
"@.@.@.@.@.@.@.@.@.@.O.@.O.*.*.Q 7 X X X X O X X X X X O X X & X X X X X X X X X X O X X u ` <.*.@.@.@.@.@.@.@.@.@.@.@.@.@.@.@.@.",
"@.@.@.@.@.@.@.@.@.@.O.@.O.*.*.Q 3 X X X X X X X X X X X O X X X X X X X X X X X X O X X r ) <.*.@.@.@.@.@.@.@.@.@.@.@.@.@.@.@.@.",
"@.@.@.@.@.@.@.@.@.@.O.@.O.*.*.Q 7 X X X X X X O X O X O O X O X X X X X X X X X X O X X r Q *.@.@.@.@.@.@.@.@.@.@.@.@.@.@.@.@.@.",
"@.@.@.@.@.@.@.@.@.@.O.@.O.*.*.Q 3 X X X X X O = u M c c M c M c c c c c M M c c c M c c A ` *.@.@.@.@.@.@.@.@.@.@.@.@.@.@.@.@.@.",
"@.@.@.@.@.@.@.@.@.@.O.@.O.*.*.Q , X X O X X & , G O.O. .O.O.@.O.O.O. .O.O.@.O. .O.@.@.O.O.@.@.O.@.@.@.@.@.@.@.@.@.@.@.@.@.@.@.@.",
"@.@.@.@.@.@.@.@.@.@.O.@.O.*.*.Q , X X X X X O 3 E <.<.*.;.;.;.;.;.;.;.;.;.<.;.*.*.;.<.<.;.@.O.O.@.@.@.@.@.@.@.@.@.@.@.@.@.@.@.@.",
"@.@.@.@.@.@.@.@.@.@.O.@.O.*.*.Q 7 X X X X X X , G ;.;.O.@.O.O.O.O.O.O.@.O.O.O.O.O.@.@.@.O.O.O.@.@.@.@.@.@.@.@.@.@.@.@.@.@.@.@.@.",
"@.@.@.@.@.@.@.@.@.@.O.@.O.*.*.Q 7 X X X X X O 3 G ;.;.O.*.O.O.@.O.@.@.@.O.O.O.@.*.@.@.O.O.O.@.@.@.@.@.@.@.@.@.@.@.@.@.@.@.@.@.@.",
"@.@.@.@.@.@.@.@.@.@.O.@.O.*.*.Q 7 X X X X O & 7 F *.*.O.;.@.O.;.O.@.*.*.O.O.@.*.@.@.O.O.O.@.@.O.@.@.@.@.@.@.@.@.@.@.@.@.@.@.@.@.",
"@.@.@.@.@.@.@.@.@.@.O.@.O.*.*.Q 3 X X X X X O 7 G *.;.@.@.@.@.@.O.@.@.@.O.O.O.@.*.O. . .@.*.@.@.@.@.@.@.@.@.@.@.@.@.@.@.@.@.@.@.",
"@.@.@.@.@.@.@.@.@.@.O.@.O.*.*.Q 3 X X X X X O 7 G @.;.@.@.O.@.O.*.@.@.O.O.O.O.@.@.O. .O.@.*.*.*.@.@.@.@.@.@.@.@.@.@.@.@.@.@.@.@.",
"@.@.@.@.@.@.@.@.@.@.O.@.O.*.*.Q 3 X X X X X O 7 G @.*.O.@.O.@.@.*.@.O. .O.@.@.@.@.O.O.@.@.*.*.@.@.@.@.@.@.@.@.@.@.@.@.@.@.@.@.@.",
"@.@.@.@.@.@.@.@.@.@.O.@.O.*.*.Q 3 X X X X X O 3 L *.;.@.@.@.@.@.@.O.O.O.@.@.@.@.@.@.@.@.@.O.O.O.@.@.@.@.@.@.@.@.@.@.@.@.@.@.@.@.",
"@.@.@.@.@.@.@.@.@.@.O.@.O.*.*.Q 3 X X X O X O 3 L *.;.@.@.O.@.@.O.@.@.@.@.O.O.@.O.@.*.*.@.O.O.O.@.@.@.@.@.@.@.@.@.@.@.@.@.@.@.@.",
"@.@.@.@.@.@.@.@.@.@.O.@.O.*.*.Q 3 X X X X X O 7 G *.;.O.O.O.@.O.O.@.*.*.@.O. .O.O.@.*.@.*.@.@.@.@.@.@.@.@.@.@.@.@.@.@.@.@.@.@.@.",
"@.@.@.@.@.@.@.@.@.@.O.@.O.*.*.Q 3 X X X X X O 7 G *.;.@.@.O.O.O.@.@.@.@.@.O.O.O.@.@.@.@.@.@.@.@.@.@.@.@.@.@.@.@.@.@.@.@.@.@.@.@.",
"@.@.@.@.@.@.@.@.@.@.O.@.O.*.*.Q 3 X X X X X O 7 G *.;.@.@.O.@.O.@.O.O.O.@.@.@.@.@.@.O.O.@.@.O.O.@.@.@.@.@.@.@.@.@.@.@.@.@.@.@.@.",
"@.@.@.@.@.@.@.@.@.@.O.@.O.*.*.Q 3 X X X X X O 9 G *.;.O.@.@.@.@.O.O.O.O.@.@.@.@.O.O.O.O.O.O.O.O.O.O.O.@.@.@.@.@.@.@.@.@.@.@.@.@.",
"@.@.@.@.@.@.@.@.@.@.O.@.O.*.*.Q 3 X X X X X O 7 L *.;.@.*.@.*.@.O.@.@.@.@.@.@.*.@.@.@.@.@.@.@.@.O.O.O.@.@.@.@.@.@.@.@.@.@.@.@.@.",
"@.@.@.@.@.@.@.@.@.@.O.@.O.*.*.Q 3 X X X X X X 3 G *.;.@.@.@.@.O.@.O.@.@.@.@.@.@.@.@.@.@.@.@.@.@.O.O.@.@.@.@.@.@.@.@.@.@.@.@.@.@.",
"@.@.@.@.@.@.@.@.@.@.O.@.O.*.*.Q , X X O O X X 3 G *.;.@.@.@.@.O.@.@.@.@.@.O.O.O.@.@.@.@.@.@.@.@.@.@.@.@.@.@.@.@.@.@.@.@.@.@.@.@.",
"@.@.@.@.@.@.@.@.@.@.O.@.O.*.*.Q , X X O O X X 3 L *.;.@.@.@.@.O.@.@.@.@.@.@.@.@.@.@.@.@.@.@.@.@.@.@.@.@.@.@.@.@.@.@.@.@.@.@.@.@.",
"@.@.@.@.@.@.@.@.@.@.O.@.O.*.*.Q 3 X X X X X X 3 G *.*.@.@.O.@.O.@.@.@.@.@.@.@.O.@.@.@.@.@.@.@.@.@.@.@.@.@.@.O.O.@.@.@.@.@.@.@.@.",
"@.@.@.@.@.@.@.@.@.@.O.@.O.*.*.Q 3 X X X X X O 7 L *.;.@.@.@.@.@.@.@.@.@.@.@.@.@.@.@.@.@.@.@.@.@.@.@.@.@.@.O.O.O.@.@.@.@.@.@.@.@.",
"@.@.@.@.@.@.@.@.@.@.O.@.O.*.*.Q 3 X X X X X O 9 Q <.<.*.;.;.<.;.;.;.;.;.;.;.;.;.;.;.;.;.;.;.;.;.@.@.@.@.@.O.O.O.@.@.@.@.@.@.@.@.",
"@.@.@.@.@.@.@.@.O.@.O.O.O.;.;.E 7 X X X X X O , F ) O.{ ) `  . .{ { { { { { { { { { { { { { { { ` @.@. .@.*.O.O.@.@.@.@.@.@.@.@.",
"@.@.@.@.@.@.@.@.O.@.O.O.O.;.;.E 7 X X X X X X & 7 a k a u f f f f f f f a a a a a a f f a a f a M ) *.@.@.O. .*.@.@.@.@.@.@.@.@.",
"@.@.@.@.@.@.@.@.O.@.@.@.O.*.;.E 7 X X O O X X O X X X X X X X X X X X X X X X X X X X X X X X X 3 L ;.*.@.O.O.*.@.@.@.@.@.@.@.@.",
"@.@.@.@.@.@.@.@.O.@.@.@.O.*.*.Q , X X X X X X X O X X X X X X X X X X X X X X X X X X X X X X X 3 E ;.*.@.@.O.O.@.@.@.@.@.@.@.@.",
"@.@.@.@.@.@.@.@.@.@.@.@.O.*.*.Q 7 O X X X O X X & O O & & O X O X X X X X X X X X X X X X X X X 3 E ;.@.@.*.@.O.@.@.@.@.@.@.@.@.",
"@.@.@.@.@.@.@.@.@.@.O.@.O.*.;.) 9 O X X X X X X X X X X X X X X O O X X O O O O O O O X O O X O , L ;.@.O.@.O.@.@.@.@.@.@.@.@.@.",
"@.@.@.@.@.@.@.@.@.@.O.@.O.@.;.) f , = O O & O O X O O O O & O O X X X X X X X X X X X X X X X X r Q ;.@.O.O.O.@.@.@.@.@.@.@.@.@.",
"@.@.@.@.@.@.@.@.@.@.O.@.O.@.<.` E V M c c M c c c c c k c M M c M c c c M M M M c c c c M M M M V ` *.O.O.@.O.@.@.@.@.@.@.@.@.@."
};
