/* XPM */
static char *_731497cf6cb4f09bfebb11fc4d9f06dUCSLQECEJfrj0R5L[] = {
/* columns rows colors chars-per-pixel */
"32 32 4 1 ",
"  c black",
". c #111111",
"X c #232323",
"o c #808080",
/* pixels */
"oooooooooooooooooooooooooooooooo",
"ooooooooX               oooooooo",
"oooooooo                oooooooo",
"oooooooo                oooooooo",
"oooooooo   .oooooooooooooooooooo",
"oooooooo   .oooooooooooooooooooo",
"oooooooo   .oooooooooooooooooooo",
"oooooooo   .oooooooooooooooooooo",
"oooooooo   .oooooooooooooooooooo",
"oooooooo   .oooooooooooooooooooo",
"oooooooo   .oooooooooooooooooooo",
"oooooooo   .oooooooooooooooooooo",
"oooooooo   .oooooooooooooooooooo",
"oooooooo   .oooooooooooooooooooo",
"oooooooo              oooooooooo",
"oooooooo              oooooooooo",
"oooooooo              oooooooooo",
"oooooooo   .oooooooooooooooooooo",
"oooooooo   .oooooooooooooooooooo",
"oooooooo   .oooooooooooooooooooo",
"oooooooo   .oooooooooooooooooooo",
"oooooooo   .oooooooooooooooooooo",
"oooooooo   .oooooooooooooooooooo",
"oooooooo   .oooooooooooooooooooo",
"oooooooo   .oooooooooooooooooooo",
"oooooooo   .oooooooooooooooooooo",
"oooooooo   .oooooooooooooooooooo",
"oooooooo   .oooooooooooooooooooo",
"oooooooo                oooooooo",
"oooooooo                oooooooo",
"ooooooooX               oooooooo",
"oooooooooooooooooooooooooooooooo"
};
