/* XPM */
static char *_9d64682b52c46dd9ffc6d66b2d77f867DIZGJGonz9eixQL[] = {
/* columns rows colors chars-per-pixel */
"64 64 138 2 ",
"   c black",
".  c #010101",
"X  c #020202",
"o  c gray1",
"O  c #040404",
"+  c gray2",
"@  c #060606",
"#  c #070707",
"$  c gray3",
"%  c #090909",
"&  c gray4",
"*  c #0B0B0B",
"=  c #0C0C0C",
"-  c gray5",
";  c #0E0E0E",
":  c gray6",
">  c #101010",
",  c #111111",
"<  c gray7",
"1  c #131313",
"2  c gray8",
"3  c #151515",
"4  c #161616",
"5  c gray9",
"6  c #181818",
"7  c #191919",
"8  c gray10",
"9  c #1B1B1B",
"0  c gray11",
"q  c #1D1D1D",
"w  c #1E1E1E",
"e  c gray12",
"r  c #202020",
"t  c gray13",
"y  c #222222",
"u  c #232323",
"i  c gray14",
"p  c gray15",
"a  c #272727",
"s  c #282828",
"d  c #2A2A2A",
"f  c gray17",
"g  c #2C2C2C",
"h  c #2D2D2D",
"j  c gray18",
"k  c #2F2F2F",
"l  c gray19",
"z  c #313131",
"x  c #323232",
"c  c gray20",
"v  c #343434",
"b  c #353535",
"n  c gray21",
"m  c #373737",
"M  c gray22",
"N  c #393939",
"B  c #3A3A3A",
"V  c gray23",
"C  c #3C3C3C",
"Z  c gray24",
"A  c #3E3E3E",
"S  c #3F3F3F",
"D  c gray25",
"F  c #414141",
"G  c gray26",
"H  c #434343",
"J  c #444444",
"K  c gray27",
"L  c #464646",
"P  c gray28",
"I  c #484848",
"U  c #494949",
"Y  c gray29",
"T  c #4B4B4B",
"R  c #4C4C4C",
"E  c gray30",
"W  c #4E4E4E",
"Q  c gray31",
"!  c #505050",
"~  c #515151",
"^  c gray32",
"/  c #555555",
"(  c gray34",
")  c #585858",
"_  c gray35",
"`  c #5A5A5A",
"'  c #5B5B5B",
"]  c gray36",
"[  c #5D5D5D",
"{  c gray37",
"}  c #5F5F5F",
"|  c gray38",
" . c #626262",
".. c gray39",
"X. c #646464",
"o. c #656565",
"O. c gray40",
"+. c #676767",
"@. c #686868",
"#. c DimGray",
"$. c #6A6A6A",
"%. c gray42",
"&. c #6C6C6C",
"*. c #6D6D6D",
"=. c gray43",
"-. c #6F6F6F",
";. c gray44",
":. c #717171",
">. c #727272",
",. c gray45",
"<. c #747474",
"1. c gray46",
"2. c #767676",
"3. c #777777",
"4. c gray47",
"5. c #797979",
"6. c gray48",
"7. c #7B7B7B",
"8. c #7C7C7C",
"9. c gray49",
"0. c #7E7E7E",
"q. c gray50",
"w. c #808080",
"e. c #818181",
"r. c gray51",
"t. c #838383",
"y. c #848484",
"u. c gray52",
"i. c #868686",
"p. c gray53",
"a. c #888888",
"s. c #898989",
"d. c gray54",
"f. c #8B8B8B",
"g. c gray55",
"h. c #8D8D8D",
"j. c #8E8E8E",
"k. c gray56",
/* pixels */
"r.r.r.r.r.r.9.9.y.s.9.r.9.7.r.r.9.r.r.9.y.y.r.y.9.7.9.r.r.y.y.1.r.r.9.9.9.r.r.r.r.9.r.9.9.r.y.7.9.r.r.7.9.r.7.s.y.r.9.9.9.9.r.r.",
"9.9.9.9.r.r.y.y.9.,./ Y S b S B S B b F | 1.7.9.y.r.r.r.9.9.r.r.r.r.r.9.9.r.r.9.r.9.r.r.9.9.,.[ P F S b B B F $.r.r.r.r.r.9.9.9.",
"9.7.7.9.r.y.y.y.9.[ f 2 %   O   %     = B [ ,.r.r.r.r.r.7.7.r.y.y.r.r.9.9.9.9.r.r.9.9.r.y.r.| S 6 O   O O   1 ^ r.r.r.r.r.r.9.9.",
"r.9.9.9.9.r.r.r.7.^ 2                 O 6 b [ r.7.r.r.r.r.9.9.y.y.r.r.9.9.9.9.r.r.7.7.r.g.s.+.l =           % R 9.r.y.r.r.r.r.9.",
"r.r.9.9.r.r.r.r.7.Y =       O     % %   O 2 S $.1.r.r.r.y.r.7.r.r.9.9.r.9.9.r.y.r.7.7.9.s.g.$.b 1     O %   = Y 7.r.r.r.9.r.r.r.",
"r.9.9.9.r.r.r.r.7.Y =             O       O u P 1.s.y.7.r.r.9.r.9.9.9.r.r.9.r.y.r.9.7.7.y.g.&.B 2 O         = F 1.9.r.9.9.r.y.r.",
"9.9.9.r.r.r.r.9.7.Y =                     O = p | y.y.1.9.y.9.r.9.9.r.y.r.9.9.y.r.r.9.7.r.s.$.B 2 O         = P 1.9.r.9.7.r.r.9.",
"9.r.r.r.r.r.9.7.7.P =       O O       O O     1 Y 7.y.1.r.y.9.9.9.9.r.y.r.7.7.r.9.r.y.9.r.y.$.B 2 O   O O   = R ,.9.r.9.7.9.9.7.",
"y.y.r.9.9.9.r.9.,.Y =   O   O %   % O   O     % b [ 7.r.s.y.9.r.7.9.r.y.y.r.9.7.r.r.r.9.r.y.+.l 2 O         1 Y 7.r.y.r.9.9.7.7.",
"r.r.r.9.9.r.r.r.1.Y =   O     % O %     O       q F $.r.y.r.9.y.9.9.r.r.r.r.9.9.9.r.r.9.r.s.$.b 2 O         = Y 1.9.r.r.r.r.r.9.",
"9.r.r.9.9.r.r.r.1.Y =   O     O % %     O O   O O p ` r.y.9.9.y.r.r.r.r.r.r.r.r.9.r.r.9.y.s.$.B 2 %         = P ,.7.9.9.9.r.y.r.",
"9.r.r.r.r.r.r.9.1.Y =   O     O q 6 = O O O O O   1 Y 7.r.9.r.r.r.r.r.9.9.r.r.r.r.r.r.9.y.s.$.B 2 O     O   = P 1.7.9.9.9.r.y.y.",
"9.r.r.r.r.r.9.9.,.Y =   O   O % k f u 2 %         % b +.7.r.y.9.r.r.9.9.9.9.r.r.y.y.y.9.r.y.$.b 1 O     O   = Y 7.9.r.9.9.r.r.r.",
"r.r.r.r.r.r.9.7.,.Y =   O   O % k l b f =         O q F $.y.s.9.r.9.9.9.9.9.9.r.y.y.y.9.r.y.+.b 1 O     O   = Y 7.r.r.r.9.9.9.9.",
"9.r.r.r.9.r.r.9.1.Y =   O     % q k Y F 6     O   O % 6 ^ r.s.9.9.r.r.r.r.r.r.9.r.r.r.9.r.y.$.B 2 O         = Y 7.9.r.r.9.9.9.9.",
"9.r.r.9.9.r.r.9.1.Y =   O     O 2 l / ^ u         %     S 7.y.7.9.r.r.r.r.r.r.9.7.9.9.7.r.s.&.S 6 O         = Y 1.9.r.r.r.r.r.9.",
"r.r.9.r.r.r.r.r.1.Y =   O     O 1 S &.+.f     %       O p ^ ,.r.y.9.r.s.r.9.r.y.r.9.7.7.r.g.$.b 2 O         = Y 1.9.r.r.r.r.r.9.",
"r.r.9.r.r.r.r.r.1.Y =   O     O 1 S &.&.S 2 O O       O 2 B +.r.y.9.r.y.r.r.r.r.r.r.9.7.r.s.$.b 2 O         = Y 1.9.r.r.r.r.r.9.",
"r.r.9.r.r.r.r.r.1.Y =   O     O 2 S &.9.[ l 2           O q ^ r.y.r.9.9.9.r.r.r.r.r.r.9.y.s.$.B 2 O         = Y 1.9.y.r.r.r.9.9.",
"r.r.9.r.r.r.r.r.1.Y =   O     O 2 B &.s.1.^ p             % S 1.r.r.7.1.9.r.r.r.9.r.y.r.y.y.$.B 2 O         = Y 1.9.y.r.r.r.9.9.",
"r.r.9.r.r.r.r.r.1.Y =   O     O 2 b &.g.y.+.b % O     O     f ` 1.y.r.7.9.r.9.9.9.r.y.r.y.y.+.B 2 O         = Y 1.9.y.r.r.r.r.9.",
"r.r.9.r.r.r.r.r.1.Y =   O     O 2 b $.s.s.,.R p =           2 b $.s.g.9.r.r.9.9.r.r.r.r.y.y.+.B 2 O         = Y 1.9.y.r.r.r.r.9.",
"r.r.9.9.r.r.r.r.1.Y =   O     O 2 b $.y.y.7.| P 6 O     O   O 2 R 9.g.r.r.r.9.r.r.9.9.r.y.y.+.S 2 O         = Y 1.9.y.r.r.r.r.9.",
"r.r.9.r.r.r.r.r.1.Y =   O     O 1 B $.y.y.9.,.[ q %   O O     O b ,.s.9.r.r.9.y.r.9.9.9.y.y.+.S 2 O         = Y 1.9.y.r.r.r.r.9.",
"r.r.9.r.r.r.r.r.1.Y =   O     O 2 S &.y.r.r.9.1.B 1   O         p R &.9.r.r.9.r.r.r.9.9.y.s.$.b 2 O     O   = Y 1.9.y.r.r.r.r.9.",
"r.r.9.9.r.r.r.r.1.Y =   O     O 2 S &.y.y.r.r.1.Y u O           2 l ` 7.r.r.r.r.9.r.r.9.y.s.$.b 2 O     O   = Y 1.9.y.r.r.r.r.9.",
"r.r.9.r.r.r.r.r.1.Y =   O     O 2 B &.y.y.r.r.7.[ F 2           O 1 F ,.9.9.r.9.9.r.r.9.r.y.$.B 2 O         = Y 1.9.y.r.r.r.r.9.",
"r.r.9.r.r.r.r.r.1.Y =   O     O 2 B &.y.y.r.r.9.,.[ f         O     k $.7.9.r.7.9.r.y.r.r.y.$.B 2 O         = Y 1.9.y.r.r.r.r.9.",
"r.r.9.r.r.r.r.r.1.Y =   O     O 1 b $.y.r.9.r.9.r.,.F 2 O           u / &.7.y.7.9.r.y.r.r.y.$.B 2 O         = Y 1.9.y.r.r.r.r.9.",
"r.r.9.r.r.r.r.r.1.Y =   O     O 1 b $.y.r.9.r.r.y.7.` l 1           2 B ` 7.y.9.9.r.r.9.y.s.$.B 2 O         = Y 1.9.y.r.r.r.r.9.",
"r.r.9.r.r.r.r.r.1.Y =   O     O 2 b $.y.r.9.r.r.y.9.,.^ u           % 6 F ,.y.r.9.r.r.9.y.s.$.b 2 O     O   = Y 1.9.y.r.r.r.9.9.",
"r.r.9.r.r.r.r.r.1.Y =   O     O 2 B &.s.y.9.r.y.r.9.9.+.f O       %     k $.r.9.r.r.9.9.y.s.$.b 2 O     O   = Y 1.9.y.r.r.r.9.9.",
"r.r.9.r.r.r.r.r.1.R %         O 2 b $.s.y.9.r.9.9.r.y.1.P 6 O           6 F | r.s.r.9.r.9.r.1.B 2 O         = Y 1.9.y.r.r.r.r.9.",
"r.r.9.r.r.r.r.r.1.R %         O 2 b $.s.y.9.r.9.r.r.y.9./ k 1           = f Y 7.s.r.9.r.r.y.1.b 2 O     O   = Y 1.9.y.r.r.r.r.9.",
"r.9.9.9.r.r.r.r.1.R %         O 2 B $.y.r.9.r.r.r.r.y.r.$.R p       O     = k &.r.r.9.r.r.y.,.l 2 O     O   = Y 1.9.y.r.r.r.r.9.",
"r.r.9.r.r.r.r.r.1.R %         O 6 B $.y.r.9.r.r.r.9.r.r.7.+.b       O       q [ ,.r.r.r.r.r.&.l 2 O     O   = Y 1.9.y.r.r.r.r.9.",
"r.r.9.r.r.r.r.r.1.R %         O 6 B $.y.r.9.r.r.r.9.9.r.r.7.R 2 O O O     O 2 F | 9.s.y.r.r.$.b 2 O         = Y 1.9.y.r.r.r.r.9.",
"r.r.9.r.r.r.r.r.1.R %         O 6 b $.y.y.r.r.9.y.9.r.r.y.r.| B 2         O % q Y 7.s.y.y.r.$.B 2 O         = Y 1.9.y.r.r.r.r.9.",
"r.r.9.r.r.r.r.r.1.R %         O 2 b +.y.y.r.r.9.r.9.r.r.r.r.1.| k     O     O % l $.9.9.y.y.$.B 2 O         = Y 1.9.y.r.r.r.r.9.",
"r.r.9.r.r.r.r.r.1.R %         O 2 b +.y.y.r.r.9.r.7.9.r.9.r.r.7.S     =       O u [ 1.1.r.y.$.b 2 O         = Y 1.9.y.r.r.r.r.9.",
"r.r.9.r.r.r.r.r.1.Y =   O     O 2 b $.s.y.r.r.r.7.9.r.r.9.9.y.s.R u % %     O   6 b [ 7.r.s.$.l 2 O         = Y 1.9.y.r.r.r.r.9.",
"r.r.9.r.r.r.r.r.1.Y =   O     O 2 b $.s.y.r.r.r.9.9.r.r.r.r.r.y.| S 6 O     O   1 p R 1.s.s.$.B 2 O         = Y 1.9.y.r.r.r.9.9.",
"r.r.9.r.r.r.r.r.1.Y =   O     O 2 b $.s.y.r.r.r.r.9.9.r.r.y.r.9.7.[ f         O % = b &.s.s.$.B 2 O         = Y 1.9.y.r.r.r.9.9.",
"r.r.9.r.r.r.r.r.1.Y =   O     O 1 b $.s.y.r.r.r.r.r.r.r.r.r.r.9.y.,.B O       O     p ` 9.y.$.b 2 O         = Y 1.9.y.r.r.r.r.9.",
"r.r.9.r.r.r.r.r.1.Y =   O     O 1 b $.y.y.9.r.r.y.r.r.9.9.9.r.r.y.9.^ q %           2 S +.y.&.b 2 O         = Y 1.9.y.r.r.r.r.9.",
"r.r.9.r.r.r.r.r.1.Y =   O     O 2 b $.y.y.9.r.9.y.y.r.9.7.9.r.y.s.r.$.P u O         = u R 9.1.S 2 O         = Y 1.9.y.r.r.r.r.9.",
"r.r.9.9.r.r.r.r.1.Y =   O     O 2 b $.y.y.9.9.9.y.r.9.9.9.r.r.r.y.9.7.$.B %         O 1 b $.&.S 2 O         = Y 1.9.y.r.9.r.r.9.",
"r.r.9.r.r.r.r.r.1.Y =   O     O 2 B $.y.r.9.9.9.y.r.9.9.r.y.r.9.r.7.r.9.P =           O p ` [ b 2 O         = Y 1.9.y.r.r.r.r.9.",
"r.r.9.9.r.r.r.r.1.Y =   O     O 2 B &.s.r.7.9.r.r.9.9.r.y.y.r.7.9.9.s.r.` f = O O       6 F Y l 6 O     O   = Y 7.9.r.r.r.r.r.r.",
"r.r.9.9.r.r.r.r.1.Y =   O     O 6 S ,.s.r.9.9.r.r.9.9.9.r.r.r.9.r.r.y.y.+.F u O         1 l B f 6 %         = Y 7.9.r.r.r.r.r.r.",
"r.r.r.r.r.r.r.9.1.Y =   O     O 2 B &.s.y.9.r.r.r.9.9.9.9.r.r.r.r.r.r.r.1.| B %         O 6 u 2 1 O         = Y 7.r.r.r.9.r.r.r.",
"r.r.r.r.r.r.9.9.1.Y =   O     O 1 b $.y.y.9.y.y.r.r.r.9.9.9.r.y.r.r.9.9.r.9.R =     O O   O = O %           1 R 7.9.r.r.9.r.r.r.",
"r.r.r.r.r.r.9.9.1.Y =   O     O 1 l $.y.y.r.y.y.r.r.r.9.9.7.9.r.r.r.9.7.y.y.` q %   O O         O           1 R 7.9.r.r.9.r.r.r.",
"r.r.r.r.r.r.r.9.1.Y =   O     O 2 B $.s.y.r.r.r.r.r.r.r.9.9.9.r.y.r.r.9.y.y.$.S 6 O   O         O   O       = P 1.9.r.r.r.r.r.9.",
"r.r.9.r.r.r.r.r.1.Y =   O     O 6 B $.s.y.r.r.r.9.r.r.r.r.r.r.r.r.9.r.y.r.r.1.| b 1           O O           = P ,.7.r.r.r.r.r.9.",
"r.r.9.9.r.r.r.r.1.Y =   O     O 2 b $.y.y.r.r.r.7.9.9.r.r.r.r.r.9.7.r.y.r.9.9.7.^ u           O O           1 Y ,.7.r.r.r.r.r.9.",
"7.r.r.9.9.r.y.y.7.Y =   O       1 b +.y.r.9.r.y.9.9.9.9.r.y.r.9.9.9.9.9.9.r.s.s.$.b 1 %               O O   1 ^ 1.7.r.9.9.r.r.r.",
"r.y.y.9.9.9.r.r.&.P %   O     O 6 B &.y.r.9.r.y.r.r.9.9.r.y.r.9.r.r.9.9.r.r.y.s.1.R p O     % O %           = Y 7.9.r.r.r.r.r.r.",
"r.y.y.9.9.9.9.9.,.Y 1   O     O 2 B &.y.r.9.r.r.r.r.9.9.r.r.r.9.r.r.9.9.r.r.r.y.7.&.F 1         O           1 Y 1.9.r.r.r.r.r.r.",
"9.r.r.9.9.9.r.9.1.R =   O       1 b &.s.y.9.9.9.r.r.r.9.9.r.r.9.9.9.9.9.9.9.9.9.9.9.` f =                   % S ,.7.r.r.r.r.r.r.",
"9.9.9.9.9.r.r.9.1.R =   O   O O 1 b &.g.s.9.9.1.r.r.r.9.9.r.r.9.9.9.9.9.9.9.9.9.y.y.$.P p %   %   O %       1 P 1.9.r.r.r.r.r.r.",
"9.r.r.9.r.r.r.9.,.Y %           % k +.y.s.y.r.9.r.r.r.9.9.r.r.r.r.r.r.r.r.9.9.9.r.r.9.&.R 6               % u ` 9.r.y.r.r.r.r.9.",
"r.r.r.r.r.r.r.9.$.Y 2 O % O O O q B +.r.y.y.y.r.r.r.r.9.9.r.r.r.r.r.r.r.r.r.r.r.9.9.s.s.$.B 6 % O O O O 1 u b +.r.y.y.r.9.9.9.9.",
"9.r.r.r.r.y.r.9.9.$.S l B b S F P ` 1.s.y.r.r.7.9.r.r.9.9.r.r.r.9.9.9.9.9.9.r.r.y.9.y.g.1.` Y B S B B B P ^ ` 9.r.y.y.r.9.9.9.9."
};
