/* XPM */
static char *a6e6d9c65bb74903a420159d6869c086cH5ZI3Z0kzyLLAsx[] = {
/* columns rows colors chars-per-pixel */
"64 64 145 2 ",
"   c black",
".  c #010101",
"X  c #020202",
"o  c gray1",
"O  c #040404",
"+  c gray2",
"@  c #060606",
"#  c #070707",
"$  c gray3",
"%  c #090909",
"&  c gray4",
"*  c #0B0B0B",
"=  c #0C0C0C",
"-  c gray5",
";  c #0E0E0E",
":  c gray6",
">  c #101010",
",  c #111111",
"<  c gray7",
"1  c #131313",
"2  c gray8",
"3  c #151515",
"4  c #161616",
"5  c gray9",
"6  c #181818",
"7  c #191919",
"8  c gray10",
"9  c #1B1B1B",
"0  c gray11",
"q  c #1D1D1D",
"w  c #1E1E1E",
"e  c gray12",
"r  c #202020",
"t  c gray13",
"y  c #222222",
"u  c #232323",
"i  c gray14",
"p  c #252525",
"a  c gray15",
"s  c #272727",
"d  c #282828",
"f  c gray16",
"g  c #2A2A2A",
"h  c gray17",
"j  c #2C2C2C",
"k  c #2D2D2D",
"l  c gray18",
"z  c #2F2F2F",
"x  c gray19",
"c  c #313131",
"v  c #323232",
"b  c gray20",
"n  c #343434",
"m  c #353535",
"M  c gray21",
"N  c #373737",
"B  c gray22",
"V  c #393939",
"C  c #3A3A3A",
"Z  c gray23",
"A  c #3C3C3C",
"S  c gray24",
"D  c #3E3E3E",
"F  c #3F3F3F",
"G  c gray25",
"H  c #414141",
"J  c gray26",
"K  c #434343",
"L  c #444444",
"P  c gray27",
"I  c #464646",
"U  c gray28",
"Y  c #484848",
"T  c #494949",
"R  c gray29",
"E  c #4B4B4B",
"W  c #4C4C4C",
"Q  c gray30",
"!  c #4E4E4E",
"~  c gray31",
"^  c #505050",
"/  c #515151",
"(  c gray32",
")  c #535353",
"_  c gray33",
"`  c #555555",
"'  c #565656",
"]  c gray34",
"[  c #585858",
"{  c gray35",
"}  c #5A5A5A",
"|  c #5B5B5B",
" . c gray36",
".. c #5D5D5D",
"X. c gray37",
"o. c #5F5F5F",
"O. c #606060",
"+. c gray38",
"@. c #626262",
"#. c gray39",
"$. c #646464",
"%. c #656565",
"&. c gray40",
"*. c #676767",
"=. c #686868",
"-. c DimGray",
";. c #6A6A6A",
":. c gray42",
">. c #6C6C6C",
",. c #6D6D6D",
"<. c gray43",
"1. c #6F6F6F",
"2. c gray44",
"3. c #717171",
"4. c #727272",
"5. c gray45",
"6. c #747474",
"7. c gray46",
"8. c #767676",
"9. c #777777",
"0. c gray47",
"q. c #797979",
"w. c gray48",
"e. c #7B7B7B",
"r. c #7C7C7C",
"t. c gray49",
"y. c #7E7E7E",
"u. c gray50",
"i. c #808080",
"p. c #818181",
"a. c gray51",
"s. c #838383",
"d. c #848484",
"f. c gray52",
"g. c #868686",
"h. c gray53",
"j. c #888888",
"k. c #898989",
"l. c gray54",
"z. c #8B8B8B",
"x. c gray55",
"c. c #8D8D8D",
"v. c #8E8E8E",
"b. c #909090",
"n. c gray57",
/* pixels */
"p.p.u.u.u.p.p.f.u.u.p.p.p.p.u.u.f.p.u.e.e.u.u.u.e.p.p.u.p.p.u.p.f.p.u.u.u.p.p.p.f.p.e.u.f.p.e.u.u.u.p.p.p.u.u.u.p.p.p.p.p.p.p.p.",
"p.p.u.u.u.p.p.f.u.u.p.p.p.p.u.u.u.e.u.p.k.c.k.k.k.8.) n n B B S S B B B S H S S W 2.k.c.k.p.e.u.p.u.u.p.p.p.p.p.p.p.p.p.p.p.p.p.",
"p.p.u.u.u.p.p.p.u.p.p.p.p.u.u.u.p.u.u.p.f.k.f.p.k.$.l O   O O O         O O     d #.f.f.p.p.p.p.p.p.p.u.p.p.p.p.u.p.p.p.p.u.u.p.",
"p.p.u.u.u.p.p.p.u.p.p.p.p.u.u.u.p.f.f.p.e.=.] R I x 1                           1 x I H R ..2.e.p.p.p.u.p.p.p.u.u.p.p.p.p.p.p.p.",
"p.p.u.u.p.p.p.p.u.p.p.p.p.u.u.p.u.f.k.p.$.H w % O %     O O                   O   O O O 7 n ] 2.u.p.p.p.u.p.p.u.p.p.p.p.p.p.p.p.",
"u.u.p.p.p.p.u.u.u.u.p.p.u.u.p.p.f.p.2.{ S w O     O                 O O     O %         % 4 n ..2.u.f.p.u.p.p.u.p.p.p.p.p.p.p.p.",
"u.u.p.p.p.u.u.u.u.u.p.p.u.p.p.f.k.2.W d 1 O O             O   O                             4 S $.8.p.p.u.u.p.u.p.p.p.p.p.p.u.u.",
"u.u.p.p.p.u.u.u.u.u.u.u.u.p.p.f.e...n 1 O           O = y x x x x l l x n x y 7   O         4 n { 2.p.p.u.p.p.p.p.u.p.p.p.p.p.p.",
"p.p.u.u.p.p.p.u.u.p.u.p.u.p.k.e.=.I w O             O y ] e.u.e.8.e.e.e.u.e.{ n 4 O         1 n { 2.f.f.p.p.p.p.p.p.p.p.p.p.p.p.",
"p.u.u.u.p.p.p.p.u.p.u.p.p.p.f.2.I d =           % w x R 2.k.k.k.k.c.k.f.c.c.e...S n l d 4   O x { 2.p.f.p.p.p.u.p.p.p.p.p.p.p.p.",
"p.u.u.u.p.p.p.p.u.p.u.f.f.p.u.$.y =           O a R =.8.p.f.f.f.p.p.u.e.u.f.u.2.8.,.=...n   O n #.2.p.f.p.p.p.u.p.p.p.p.p.p.p.u.",
"p.u.u.u.p.p.p.p.p.p.e.p.f.p.8.] 1 O         O 1 I =.f.k.f.u.e.e.u.u.u.e.u.p.p.u.k.k.k.u.{ l x ) ,.e.p.p.u.u.p.u.p.p.p.p.p.p.p.u.",
"u.p.p.u.u.p.p.p.p.p.e.p.p.u.,.R 1 O         1 a ..e.k.f.p.p.u.u.p.p.p.p.p.f.f.f.p.f.p.u.e.,.=.e.u.p.p.u.u.u.p.p.p.p.u.u.p.p.p.p.",
"p.p.p.p.u.u.p.p.f.p.u.p.p.8.#.S 1 O       O w B ,.p.f.e.u.f.p.p.u.u.p.p.p.u.u.u.u.p.u.e.f.k.f.f.f.f.p.u.u.u.p.p.p.p.p.p.p.p.p.p.",
"p.p.p.p.u.u.u.p.p.p.u.f.p.2.{ x =         O a R 8.f.f.8.e.p.p.u.p.p.p.f.f.u.u.p.p.f.p.u.f.f.p.p.f.p.u.u.p.p.p.p.p.p.p.p.p.p.p.p.",
"p.p.p.p.u.u.u.p.u.p.p.f.p.,.) d %         % d W 2.f.f.e.u.f.f.p.p.u.u.p.p.e.u.p.u.p.p.p.f.e.e.f.p.p.u.p.p.p.p.u.p.p.p.p.p.p.p.p.",
"p.p.p.p.u.u.p.p.u.p.u.p.k.2.S y %         % n #.8.u.f.f.u.e.u.f.p.p.u.e.u.p.p.f.p.u.u.u.p.p.p.p.p.p.p.p.p.p.p.p.p.p.p.p.p.p.u.u.",
"p.p.p.p.u.u.p.p.u.p.u.p.k.2.S y %         % x { 2.p.f.u.u.u.u.p.p.p.u.u.u.p.p.p.p.u.u.u.p.p.p.u.p.p.p.p.p.p.p.p.p.u.u.p.p.p.p.p.",
"p.p.p.p.u.u.p.p.u.p.u.p.f.2.H y %         % a R ,.f.f.e.p.f.p.p.p.p.p.p.p.p.u.u.p.u.u.u.p.p.p.u.p.p.p.p.u.u.p.p.p.p.p.p.p.p.p.p.",
"p.p.p.u.u.p.p.p.u.p.p.p.p.2.R d %         O 7 x $.f.k.e.u.f.u.u.p.p.p.p.p.p.u.u.p.p.p.p.p.p.p.p.u.u.p.p.p.p.p.p.p.p.p.p.p.p.p.p.",
"u.u.u.u.p.p.p.p.p.p.p.p.p.8.] x %     O O   % 4 ] e.f.u.u.u.e.e.u.u.p.p.f.p.p.u.p.p.p.p.p.p.p.p.p.p.p.p.p.u.p.p.p.p.p.p.p.p.p.p.",
"p.u.u.u.p.p.p.u.p.u.p.p.p.u.$.H = O   O O     O S { e.k.p.p.p.p.u.u.u.p.p.p.p.u.p.p.p.p.p.p.p.p.p.p.p.p.p.p.p.p.p.p.p.p.p.p.p.p.",
"p.u.u.u.p.p.u.u.p.u.p.p.p.p.2.W 1 O     O       w l #.k.f.p.f.f.p.u.u.u.p.p.p.u.u.p.p.p.u.u.u.p.p.p.p.p.p.p.p.p.p.p.p.u.p.p.p.p.",
"p.u.u.u.p.p.u.u.p.u.p.p.p.f.e.] 4 O     O O         H p.p.e.p.u.p.p.u.u.u.p.u.u.u.p.p.u.u.u.u.u.p.p.p.p.p.p.p.p.p.p.p.u.p.u.p.p.",
"p.p.u.p.p.p.u.u.p.p.p.p.f.f.e.=.x 7 O             O 7 x I #.e.f.f.k.f.p.u.u.u.u.u.p.p.p.u.u.p.f.u.u.u.u.u.p.p.p.p.p.p.p.p.u.p.p.",
"p.p.u.p.p.p.p.u.u.p.p.p.p.f.u.2.W x 1                 % y S ..,.e.u.u.u.u.u.p.f.p.p.p.p.p.p.p.p.p.p.p.p.p.p.p.p.p.p.p.p.u.u.p.p.",
"p.u.u.p.p.p.p.u.u.p.p.u.p.f.p.e.8.W w           O       % 7 a l W ..e.k.c.f.p.u.u.u.u.u.p.p.p.p.p.p.p.p.p.p.p.u.p.p.p.p.p.p.p.p.",
"u.u.u.p.p.p.p.p.u.p.p.u.u.p.p.p.k.$.x =                 O O     w B ..e.p.e.e.u.p.u.e.u.u.p.p.p.p.p.p.p.p.p.p.p.p.p.p.u.p.p.p.p.",
"u.u.p.p.p.p.p.p.u.p.p.u.e.u.u.p.k.u.$.H w %                     % 4 d n S R =.f.c.f.p.p.p.u.u.p.u.u.u.u.p.p.p.p.p.p.p.p.p.p.p.p.",
"u.p.p.p.p.u.p.p.p.p.p.u.u.u.u.u.e.k.c.2.H w % O                 O   O   O w R 2.u.u.u.f.k.p.u.u.u.u.u.u.u.p.p.p.p.p.p.p.p.p.p.p.",
"u.p.p.p.p.u.u.p.p.u.u.u.u.u.u.u.e.f.c.p.=.W n a O O                       O w n I W $.u.k.f.u.u.u.u.p.p.p.p.p.p.p.p.p.p.p.p.p.p.",
"u.p.p.p.u.u.u.p.u.u.u.p.p.p.p.p.f.u.8.e.f.p.$.R 4 %       O O         O O       O w I 2.f.f.p.p.p.p.p.p.p.p.p.u.p.p.p.p.p.p.p.p.",
"p.p.p.p.p.p.p.p.p.p.p.p.p.p.p.p.p.p.p.f.f.u.8.,.W I x 7 O           O O             7 B ) 2.f.u.u.f.p.e.u.f.p.u.u.u.p.p.p.p.p.p.",
"p.p.p.p.p.p.p.p.p.p.p.p.p.p.u.p.p.p.p.p.p.u.u.e.f.8...B 7 O     O   O %           O % O w W 8.e.u.p.p.u.f.f.u.u.u.u.p.p.p.p.p.p.",
"p.p.p.p.p.p.p.p.p.p.p.p.p.p.p.p.u.p.p.p.u.u.p.f.n.k.e.$.R B x l 1                 O     O a R $.e.p.p.p.f.p.u.p.u.p.p.p.p.u.p.p.",
"p.p.p.p.p.u.u.p.u.u.p.p.p.p.p.p.e.u.p.p.p.p.p.p.e.u.p.p.u.8.,.$.d %     O             O % O 7 I $.u.f.u.u.u.p.f.u.p.p.p.u.u.p.p.",
"p.p.p.p.u.p.p.p.u.p.p.p.p.p.p.p.u.u.u.p.p.f.p.p.e.e.p.k.c.k.u.8.) B x l 4             O O     a I ,.f.u.e.p.p.p.u.p.p.p.u.u.p.p.",
"p.p.p.p.p.u.p.p.u.p.p.p.p.p.p.p.k.p.u.u.p.p.f.f.f.p.u.p.f.f.u.8.e.8.8.$.n %                   % w ] e.u.p.f.p.e.p.p.p.p.u.u.u.p.",
"p.p.p.p.p.p.p.p.p.p.p.p.p.p.u.u.f.p.u.u.u.p.p.f.p.p.u.u.u.p.p.p.c.k.c.p...B a 7 %     O O O     % n #.e.k.f.u.u.p.p.p.p.u.u.u.p.",
"p.p.p.p.p.p.p.p.p.p.p.p.p.p.p.p.u.u.p.p.u.u.u.u.p.p.f.p.p.p.p.f.k.u.u.p.u.8.#.R a               % a W 8.k.p.u.f.p.p.p.p.u.u.u.p.",
"p.p.p.u.p.p.p.p.p.p.p.p.p.p.p.p.p.p.p.p.p.p.u.u.p.p.p.p.p.p.p.p.p.p.u.u.f.k.e.$.H w O   O O     O 1 x ,.c.p.p.p.p.p.p.p.u.u.u.p.",
"p.p.p.p.p.p.p.u.p.p.u.u.p.p.p.p.u.p.p.f.p.p.u.e.u.u.u.u.p.p.p.p.u.u.p.f.f.p.u.u...B 4 O           O y #.k.p.p.p.p.p.p.p.u.u.p.p.",
"p.p.p.p.p.p.p.u.p.p.p.p.u.p.p.p.p.p.p.p.p.p.p.u.u.u.u.u.u.p.p.p.u.u.p.k.p.e.p.c.e...x %             1 ) p.p.p.u.p.p.u.u.p.p.p.p.",
"p.p.p.p.p.p.p.p.p.p.p.p.p.p.p.p.p.u.u.e.u.p.f.f.p.p.p.p.p.p.u.u.u.u.p.f.u.e.u.k.k.e.R 1             1 R e.u.p.u.p.u.u.u.p.p.p.p.",
"p.p.p.p.p.p.p.p.p.p.p.p.p.p.p.p.p.p.u.u.u.p.p.p.p.p.p.p.p.p.u.u.u.p.p.u.p.f.p.u.f.p.] 7             1 R 2.e.p.p.p.u.u.u.p.p.p.p.",
"p.p.u.u.p.p.p.p.p.p.p.p.p.p.p.p.u.p.f.f.f.p.e.e.u.u.u.u.u.p.p.p.p.p.u.e.p.c.f.e.u.f...w O O         1 I ,.e.p.p.p.p.u.u.p.p.p.p.",
"p.p.p.p.p.p.u.u.p.p.p.p.p.p.p.p.u.p.p.f.p.p.u.e.u.u.u.u.p.p.p.p.p.u.u.u.p.f.p.u.p.k...y %           1 R 2.e.p.p.p.p.p.p.u.u.p.p.",
"p.p.p.p.p.p.p.p.p.p.p.u.u.p.p.p.p.p.u.u.u.p.p.p.p.p.p.p.p.p.p.p.p.u.u.p.u.e.e.p.f.c...y %         O 4 R 8.u.p.u.p.p.p.p.u.u.u.p.",
"u.p.p.p.u.u.u.p.u.p.f.u.p.f.u.f.e.p.u.8.u.p.p.f.p.u.u.u.p.p.p.f.u.p.f.p.e.8.u.f.f.f...7       O   O 4 ) u.p.u.p.p.p.u.u.u.u.p.p.",
"p.p.p.p.u.u.u.p.f.f.f.e.u.p.p.c.c.k.e.8.p.k.p.u.u.u.u.p.p.p.p.u.p.u.u.p.p.u.u.p.f.e.) 1   O         4 { k.p.u.p.p.p.p.u.u.u.p.p.",
"p.p.u.p.p.p.p.u.f.p.f.e.8.8.$.,.2.e.e.e.p.p.u.u.u.u.u.p.f.f.p.u.f.u.e.p.f.p.p.f.p.,.I =   O       O w #.c.f.u.f.p.p.p.p.p.p.p.p.",
"p.p.u.u.p.p.p.u.e.u.f.u.2.] x d W 2.c.c.f.e.u.k.p.u.e.e.p.f.f.u.p.f.p.u.u.u.p.p.2.{ B =         O 7 n =.k.p.p.f.p.p.p.p.p.p.u.u.",
"p.u.u.u.p.p.p.u.e.u.f.e.$.H =   l ) ,.u.p.u.u.f.f.p.u.e.u.p.p.p.p.k.f.e.e.p.p.8.#.H a %         O x ) 2.p.p.f.u.u.p.p.p.p.p.u.u.",
"p.u.u.u.p.p.p.p.f.p.p.2...B %   = 4 a I 2.c.c.f.f.f.p.u.u.p.p.u.u.p.u.e.f.c.f.2.W y %     %     % I =.e.p.p.p.e.u.p.p.p.p.p.u.u.",
"u.u.p.p.p.p.p.p.k.f.p.2...B = O       w ] 8.8.,.8.p.f.f.f.f.f.p.u.p.p.f.u.2...] l O       O O % y { e.p.p.u.p.e.p.p.p.p.p.p.u.u.",
"u.u.p.p.u.u.p.p.f.p.f.e.$.S %         % y l l l $.8.f.k.c.c.k.f.f.k.n.c.$.n y a 4   O %     % 7 S =.p.f.u.e.p.p.p.p.p.p.p.p.u.u.",
"u.u.p.p.p.p.u.u.u.u.u.e.=.R w   O             O H { 8.e.8.8.8.8.8.,.f.f.I O         O     O w n ..8.f.p.u.p.p.u.p.p.p.u.u.u.p.p.",
"u.u.p.p.p.p.u.u.u.u.p.f.e.{ l %                 w a x x l x x x x l n n 4     O           4 S #.8.p.f.p.u.p.p.u.p.p.p.u.u.u.p.p.",
"u.p.p.p.p.p.u.u.e.e.u.f.f.,.R d = %                                       O % O %     = w x { u.k.f.p.p.p.p.p.p.p.p.u.u.u.p.p.p.",
"u.p.p.p.p.p.u.u.p.u.u.p.f.u.=...H d %                 O O O                         1 n ) ..,.p.k.p.u.p.p.p.u.p.u.u.u.u.p.p.p.p.",
"u.p.p.p.p.u.u.u.f.p.p.p.p.f.p.p.8.W w O   % %                   % % O O       = O % a { u.f.p.f.u.e.u.f.f.u.u.p.u.u.u.p.p.p.p.p.",
"u.p.p.p.u.u.u.p.p.p.p.p.p.p.p.p.p.,.] R R H a = O             O           % a R R I ] 2.k.c.f.u.e.u.p.k.f.u.e.u.u.u.p.p.p.p.p.p.",
"u.p.p.p.u.u.u.p.u.u.u.u.u.u.u.e.u.u.p.k.k.8.) l 1 % O O O   O %   % O O 4 a R 2.f.p.u.p.f.f.u.e.p.p.p.f.p.p.u.u.u.p.p.p.p.p.u.u.",
"u.p.p.p.u.u.u.p.p.u.e.u.p.p.p.u.p.f.k.k.k.p.=.] H S B S S B B B n S B x H W $.f.k.k.f.u.u.p.p.u.p.p.p.u.u.p.p.p.p.p.p.p.p.p.u.u."
};
