/* XPM */
static char *_5ad1101deba4530dd1de72c1148367870XJmR4qX3dzDnYZ[] = {
/* columns rows colors chars-per-pixel */
"32 32 9 1 ",
"  c black",
". c #111111",
"X c #232323",
"o c #343434",
"O c #444444",
"+ c #535353",
"@ c gray38",
"# c gray43",
"$ c #808080",
/* pixels */
"$$$$$$$$$$$$$$$$$$$$$$$$$$$$$$$$",
"$$$$$$$$$$$$#       #$$$$$$$$$$$",
"$$$$$$$$$$+           o$$$$$$$$$",
"$$$$$$$$$o             +$$$$$$$$",
"$$$$$$$$+    X$$$$$o   O$$$$$$$$",
"$$$$$$$$    +$$$$$$$$@ +$$$$$$$$",
"$$$$$$$+   X$$$$$$$$$$$$$$$$$$$$",
"$$$$$$$O   O$$$$$$$$$$$$$$$$$$$$",
"$$$$$$$o   +$$$$$$$$$$$$$$$$$$$$",
"$$$$$$$o   o$$$$$$$$$$$$$$$$$$$$",
"$$$$$$$+    #$$$$$$$$$$$$$$$$$$$",
"$$$$$$$#     $$$$$$$$$$$$$$$$$$$",
"$$$$$$$$o     O$$$$$$$$$$$$$$$$$",
"$$$$$$$$$.      O$$$$$$$$$$$$$$$",
"$$$$$$$$$$X       X$$$$$$$$$$$$$",
"$$$$$$$$$$$+        X$$$$$$$$$$$",
"$$$$$$$$$$$$$O        @$$$$$$$$$",
"$$$$$$$$$$$$$$$@       +$$$$$$$$",
"$$$$$$$$$$$$$$$$$#      #$$$$$$$",
"$$$$$$$$$$$$$$$$$$$O    o$$$$$$$",
"$$$$$$$$$$$$$$$$$$$$o    $$$$$$$",
"$$$$$$$$$$$$$$$$$$$$$    #$$$$$$",
"$$$$$$$$$$$$$$$$$$$$$.   @$$$$$$",
"$$$$$$$$$$$$$$$$$$$$$.   #$$$$$$",
"$$$$$$$$$$$$$$$$$$$$#    $$$$$$$",
"$$$$$$@ +$$$$$$$$$$$O   o$$$$$$$",
"$$$$$$+  .$$$$$$$$$+    #$$$$$$$",
"$$$$$$@     #$$$$$     O$$$$$$$$",
"$$$$$$$o              O$$$$$$$$$",
"$$$$$$$$@            #$$$$$$$$$$",
"$$$$$$$$$$$o      X$$$$$$$$$$$$$",
"$$$$$$$$$$$$$$$$$$$$$$$$$$$$$$$$"
};
