/* XPM */
static char *f29b742e67e9455f85184fb45e57ec63079dVLrhJOI7yB2u[] = {
/* columns rows colors chars-per-pixel */
"32 32 9 1 ",
"  c black",
". c #111111",
"X c #232323",
"o c #343434",
"O c #444444",
"+ c #535353",
"@ c gray38",
"# c gray43",
"$ c #808080",
/* pixels */
"$$$$$$$$$$$$$$$$$$$$$$$$$$$$$$$$",
"$$$$$$$$$$$$$$$$$$$$$$$$$$$$$$$$",
"$$$$$$$$$$$$$$$$$$$$$$$$$$$$$$$$",
"$$$$$$$$$$$$$$$$$$$$$$$$$$$$$$$$",
"$$$$$$$$$$$$$$$$$$$$$$$$$$$$$$$$",
"$   #$$$$$$$$#   #$$$$$$$$$.  #$",
"$X  +$$$$$$$$+   +$$$$$$$$#  .$$",
"$O  o$$$$$$$$o   o$$$$$$$$+  o$$",
"$#   $$$$$$$$.    $$$$$$$$o  @$$",
"$$.  @$$$$$$#     @$$$$$$$.  $$$",
"$$o  O$$$$$$+  O  O$$$$$$#  X$$$",
"$$@  X$$$$$$o .#  X$$$$$$O  +$$$",
"$$$   $$$$$$. o$.  $$$$$$X  #$$$",
"$$$X  @$$$$#  +$o  +$$$$$  .$$$$",
"$$$+  o$$$$+  #$@  o$$$$@  O$$$$",
"$$$#  .$$$$X .$$$  .$$$$O  @$$$$",
"$$$$.  #$$$  o$$$X  #$$$X  $$$$$",
"$$$$O  +$$@  +$$$O  O$$$  o$$$$$",
"$$$$@  o$$O  #$$$#  X$$+  +$$$$$",
"$$$$$   $$X .$$$$$.  $$o  #$$$$$",
"$$$$$o  @$  o$$$$$o  @$. X$$$$$$",
"$$$$$+  O@  +$$$$$@  O#  O$$$$$$",
"$$$$$#  XO  #$$$$$$  .+  @$$$$$$",
"$$$$$$X  X X$$$$$$$X  X .$$$$$$$",
"$$$$$$O    O$$$$$$$O    o$$$$$$$",
"$$$$$$@    @$$$$$$$#    +$$$$$$$",
"$$$$$$$.   $$$$$$$$$.   $$$$$$$$",
"$$$$$$$$$$$$$$$$$$$$$$$$$$$$$$$$",
"$$$$$$$$$$$$$$$$$$$$$$$$$$$$$$$$",
"$$$$$$$$$$$$$$$$$$$$$$$$$$$$$$$$",
"$$$$$$$$$$$$$$$$$$$$$$$$$$$$$$$$",
"$$$$$$$$$$$$$$$$$$$$$$$$$$$$$$$$"
};
