/* XPM */
static char *_d68f4e112b2442f91b74f84049c87f6tqiJSUCkRj4ueZYU[] = {
/* columns rows colors chars-per-pixel */
"64 64 145 2 ",
"   c black",
".  c #010101",
"X  c #020202",
"o  c gray1",
"O  c #040404",
"+  c gray2",
"@  c #060606",
"#  c #070707",
"$  c gray3",
"%  c #090909",
"&  c gray4",
"*  c #0B0B0B",
"=  c #0C0C0C",
"-  c gray5",
";  c #0E0E0E",
":  c gray6",
">  c #101010",
",  c #111111",
"<  c gray7",
"1  c #131313",
"2  c gray8",
"3  c #151515",
"4  c #161616",
"5  c gray9",
"6  c #181818",
"7  c #191919",
"8  c gray10",
"9  c #1B1B1B",
"0  c gray11",
"q  c #1D1D1D",
"w  c #1E1E1E",
"e  c gray12",
"r  c #202020",
"t  c gray13",
"y  c #222222",
"u  c #232323",
"i  c gray14",
"p  c #252525",
"a  c gray15",
"s  c #272727",
"d  c #282828",
"f  c gray16",
"g  c #2A2A2A",
"h  c gray17",
"j  c #2C2C2C",
"k  c #2D2D2D",
"l  c gray18",
"z  c #2F2F2F",
"x  c gray19",
"c  c #313131",
"v  c #323232",
"b  c gray20",
"n  c #343434",
"m  c #353535",
"M  c gray21",
"N  c #373737",
"B  c gray22",
"V  c #393939",
"C  c #3A3A3A",
"Z  c gray23",
"A  c #3C3C3C",
"S  c gray24",
"D  c #3E3E3E",
"F  c #3F3F3F",
"G  c gray25",
"H  c #414141",
"J  c gray26",
"K  c #434343",
"L  c #444444",
"P  c gray27",
"I  c #464646",
"U  c gray28",
"Y  c #484848",
"T  c #494949",
"R  c gray29",
"E  c #4B4B4B",
"W  c #4C4C4C",
"Q  c gray30",
"!  c #4E4E4E",
"~  c gray31",
"^  c #505050",
"/  c #515151",
"(  c gray32",
")  c #535353",
"_  c gray33",
"`  c #555555",
"'  c #565656",
"]  c gray34",
"[  c #585858",
"{  c gray35",
"}  c #5A5A5A",
"|  c #5B5B5B",
" . c gray36",
".. c #5D5D5D",
"X. c gray37",
"o. c #5F5F5F",
"O. c #606060",
"+. c gray38",
"@. c #626262",
"#. c gray39",
"$. c #646464",
"%. c #656565",
"&. c gray40",
"*. c #676767",
"=. c #686868",
"-. c DimGray",
";. c #6A6A6A",
":. c gray42",
">. c #6C6C6C",
",. c #6D6D6D",
"<. c gray43",
"1. c #6F6F6F",
"2. c gray44",
"3. c #717171",
"4. c #727272",
"5. c gray45",
"6. c #747474",
"7. c gray46",
"8. c #767676",
"9. c #777777",
"0. c gray47",
"q. c #797979",
"w. c gray48",
"e. c #7B7B7B",
"r. c #7C7C7C",
"t. c gray49",
"y. c #7E7E7E",
"u. c gray50",
"i. c #808080",
"p. c #818181",
"a. c gray51",
"s. c #838383",
"d. c #848484",
"f. c gray52",
"g. c #868686",
"h. c gray53",
"j. c #888888",
"k. c #898989",
"l. c gray54",
"z. c #8B8B8B",
"x. c gray55",
"c. c #8D8D8D",
"v. c #8E8E8E",
"b. c gray56",
"n. c #909090",
/* pixels */
"y.a.f.f.a.a.a.f.y.y.y.a.a.a.a.a.a.y.y.y.a.f.f.f.w.w.y.y.a.f.f.a.a.a.y.y.y.a.a.a.a.a.a.a.y.y.y.a.f.a.a.y.a.a.y.y.a.a.a.a.a.y.a.a.",
"y.a.a.a.a.y.a.a.y.a.y.a.a.a.a.y.f.a.a.a.a.a.a.y.y.y.a.a.y.y.y.y.y.y.y.a.a.a.a.y.y.y.a.a.a.y.y.y.a.a.y.y.a.a.a.y.y.y.a.a.a.y.y.a.",
"y.y.y.y.y.y.y.y.a.a.a.a.a.y.y.y.f.a.a.a.a.a.y.y.y.f.f.a.w.6.w.a.y.a.a.a.f.a.y.w.w.y.a.a.a.a.a.a.y.y.y.y.a.a.a.a.a.a.a.a.a.a.a.a.",
"a.a.y.y.a.a.y.y.a.a.a.a.a.y.y.y.y.y.a.a.a.a.a.y.y.f.f.a.y.w.y.f.a.a.a.a.a.a.y.w.y.y.a.a.a.a.a.a.y.y.y.y.a.a.a.a.a.a.a.a.a.a.a.a.",
"f.f.a.f.f.f.a.a.a.a.a.a.a.a.a.y.y.y.y.a.a.a.a.a.a.a.a.a.y.y.a.f.a.a.a.a.a.a.a.y.a.a.a.y.y.y.a.a.y.a.a.a.a.a.a.a.a.a.a.a.a.a.a.a.",
"a.a.a.a.a.a.y.y.y.y.a.a.a.a.a.a.y.y.a.a.y.y.y.a.a.a.y.y.a.a.a.y.a.y.y.y.a.a.f.f.f.a.y.y.y.y.a.a.a.a.a.a.y.y.y.a.a.a.y.y.y.y.y.y.",
"y.y.a.a.y.y.y.a.y.y.y.a.a.a.a.a.a.a.a.a.y.y.y.a.a.y.y.y.a.a.a.y.a.y.y.y.a.f.f.f.a.a.y.y.y.a.a.a.y.a.a.a.y.y.y.a.a.a.a.a.a.a.a.a.",
"a.f.f.f.a.a.f.j.a.a.a.a.a.a.y.y.y.a.a.y.y.y.y.a.y.y.a.a.f.f.a.a.f.a.a.a.a.a.a.a.a.y.y.y.a.a.a.y.y.a.a.a.y.y.a.a.f.f.f.f.f.a.a.a.",
"y.y.j.f.j.b.f.f.w.a.f.a.y.w.y.a.y.y.y.a.f.f.f.f.y.y.y.f.f.a.f.b.b.a.f.f.y.6.y.a.a.a.a.a.a.a.a.a.f.y.w.f.a.y.f.a.f.f.f.f.j.f.a.a.",
"a.#.` / ` [ ` *.w.y.a.y.y.y.a.a.y.y.y.a.a.f.a.a.f.a.y.w.*./ / ` / W *.y.a.y.y.a.y.y.y.a.a.a.a.y.y.a.y.f.f.y.y.*.[ [ ` / ` -.y.j.",
"y.B < - < - 2 v 4.w.y.y.y.a.a.a.a.y.y.a.a.a.a.y.y.y.6.X.B 9 - < < 9 S ,.y.y.a.a.y.y.y.y.a.a.a.a.w.a.y.a.f.f.4.K 9 < < - < S ,.w.",
"a.B %         e #.4.y.a.y.a.a.a.a.a.y.a.a.a.y.y.a.a.w.[ z O         p X.w.y.a.a.y.y.y.y.a.a.a.a.w.f.a.y.f.f.-.g           B 6.y.",
"a.T e % O   O e W -.a.f.y.y.y.y.a.a.y.y.a.y.y.w.a.a.6.` p O         u / 4.y.a.y.a.a.a.a.a.a.y.y.y.f.y.w.a.f.*.u     % O < T a.f.",
"w./ z -       2 B X.a.j.a.y.y.y.a.y.y.y.a.a.y.y.f.y.*.K 9           e T -.y.a.w.a.a.a.a.a.a.y.y.y.f.y.w.y.w.X.u     O % e / a.f.",
"y.#.L 9 O     < g / w.f.a.a.a.y.y.y.y.a.a.a.a.y.b.y.X.B 9 O         2 m [ y.f.w.a.a.a.a.a.a.y.y.a.f.y.a.w.-.W e   O O < m *.a.j.",
"a.*.W p %     % u W 6.a.a.f.f.y.y.y.y.a.a.a.a.a.f.4.T p -           % p W w.b.a.y.y.y.a.a.a.y.y.y.a.a.f.w.X.K 9     O 2 K -.y.a.",
"f.4.*.m O       % v 4.b.a.a.f.y.y.y.y.a.a.y.y.y.f.y.S % O         O   O S w.f.f.a.a.a.a.a.y.y.a.y.f.a.y.6.[ v 2     O v #.4.y.a.",
"a.w.4.S %       O z -.f.a.y.f.y.y.y.y.a.a.a.y.y.y.6.m O O               B 6.a.f.a.y.a.a.a.y.y.a.y.f.a.a.6.W u -     O B ,.w.a.a.",
"a.f.y.T -         p X.y.y.y.a.a.a.a.y.y.a.a.a.a.y.,.z O                 z -.w.a.a.y.y.a.a.y.y.a.a.a.a.f.4.S - O     % L y.f.a.a.",
"y.j.j./ 9 O       e W 4.w.y.a.a.a.a.y.y.y.a.a.a.w.#.g O     O - O       p [ 4.y.a.y.y.a.a.y.y.a.a.y.a.j.,.z         < / f.j.f.a.",
"y.j.j.[ g <       9 K #.w.y.y.a.a.a.y.w.y.a.f.a.-./ e     O e g 2       9 T *.y.f.a.y.a.a.y.y.y.a.a.a.a.#.u       % e [ f.j.f.a.",
"y.f.f.*.K u   O   2 v ` w.a.y.a.a.a.y.w.y.f.f.y.#.L 2     % v T g O     < v [ y.f.a.y.a.a.a.y.a.a.a.y.6./ e     O 9 v #.a.a.a.a.",
"y.a.f.4.[ v O     - u T 6.f.a.a.a.a.y.w.y.j.f.y.[ B <     - K #.B %     % u W y.j.a.y.a.a.a.a.a.a.f.w.#.K 9     O g T -.y.y.a.a.",
"y.a.a.w.-.S O     % 2 S 6.j.a.a.a.a.y.w.a.j.j.y./ z %     2 / w.K %   O   2 L y.j.f.y.a.a.a.a.a.y.f.6.` v 2     % m [ 4.y.w.a.a.",
"a.y.y.f.y.L %     O O g 4.b.a.y.y.y.a.a.a.f.f.6.L - -   O u [ y.T -     O   B 6.j.y.a.a.y.y.a.a.f.f.6.L u -     % S -.w.a.a.y.y.",
"f.a.y.j.a.T <     O   p -.j.a.a.a.y.a.a.a.f.a.4.B % O O < v *.a.W 2     O   v ,.a.y.a.a.y.y.a.y.f.f.4.B 2 %     % K 4.a.a.a.y.y.",
"a.a.a.j.a.` u %       u X.y.y.a.a.y.a.a.y.a.w.-.z     O p T 4.f.` p %   O   g X.w.y.a.a.y.y.y.y.f.f.,.g O       - W y.f.f.f.a.y.",
"a.a.a.j.a.#.m 2 O     9 W 4.w.a.y.y.a.a.y.y.6.*.p     O v [ w.f.#.B 2       u W ,.y.f.a.y.y.y.a.f.f.*.u       % e [ f.f.a.a.a.y.",
"y.y.a.f.a.,.T p O     2 S #.6.a.a.y.a.a.y.y.4.X.u     O S *.y.y.,.W p       9 B X.y.j.a.a.a.a.a.a.y.X.e     O 2 m -.j.f.y.y.y.y.",
"y.y.a.a.y.w.X.m O     - g W 4.f.f.y.a.a.a.y.-.T e     % L 4.y.w.w.#.v       < g W w.j.y.a.f.a.f.y.,./ e     % p W 4.f.a.y.y.y.y.",
"a.y.a.y.w.y.-.S %     O 2 S ,.j.f.y.a.f.f.w.` z <   O - W w.f.y.f.4.S       % 9 K 6.j.y.a.f.y.f.6.X.S 9     - B X.6.a.a.a.a.y.a.",
"f.a.a.y.w.a.4.L %       % v -.b.a.y.a.f.a.4.L 9 %   O < / a.j.a.b.y.L O     O < B 6.f.w.y.a.y.a.6./ v 2     - L *.6.y.a.f.f.y.a.",
"f.y.a.a.w.f.w./ -         u #.f.f.f.y.a.j.4.m O   O 2 p [ f.f.a.j.f.T 2 O   O   z ,.a.a.a.a.f.f.,.L e % %   O T w.y.a.a.a.a.a.a.",
"f.y.a.a.w.f.y.[ 9 O       u [ y.a.a.y.a.j.,.v     % e m X.a.a.a.f.f./ u -   O   z *.y.a.a.y.f.j.,.B < O O   < / a.a.a.a.a.a.a.a.",
"f.y.a.a.y.j.a.*.m 9       e W ,.w.a.y.y.a.*.g     % g T -.a.y.f.f.f.X.m 9 O     u / ,.a.a.w.a.j.,.g %     % g X.j.f.a.y.y.y.y.a.",
"f.a.a.a.y.f.a.,.W g %     2 K *.w.a.a.y.6.` u     % v [ 6.a.y.a.a.a.-.T p O     < B [ y.f.w.a.j.*.e   O O e L -.j.f.y.y.y.y.y.y.",
"a.a.a.a.y.a.a.6.X.m -     < m X.w.f.f.w.-.T e     O B -.y.f.y.a.a.a.4.X.z O     - p W w.f.w.y.w.[ 2   O % z ` ,.a.y.y.y.a.a.a.y.",
"a.a.a.a.a.a.y.w.*.S -   O - p W w.j.j.6.[ m 2 O   % K 4.a.f.a.y.a.a.w.,.B %     - e K w.b.a.w.*.T <     % m X.,.y.y.a.a.f.f.a.a.",
"y.a.a.a.a.y.y.a.6.L -   O O < v 4.j.b.4.W p %   O - W w.y.a.a.a.a.y.a.y.T - O   O < m 6.b.f.6./ m <     - K *.6.y.a.a.f.a.a.a.a.",
"y.a.a.a.f.a.y.f.f.W <   %   O e -.f.b.4.L e O   O 2 [ y.y.a.a.a.a.y.f.f./ < O     O g ,.n.j.4.L p -     < T 4.a.y.a.f.a.y.y.y.y.",
"a.a.a.a.a.a.a.f.a.X.e % O O   < X.w.b.4.m - O   - v [ a.f.y.f.a.a.y.f.a.[ p %       p #.f.j.-.S 2 %     u ` y.f.a.a.a.y.y.y.a.a.",
"a.a.y.y.a.a.f.j.a.-.m e O     9 / 4.j.-.g O     2 B #.f.f.y.f.y.a.a.j.a.X.v < O     u [ y.j.*.v -     - z #.a.f.a.a.y.y.y.y.y.a.",
"f.y.w.w.y.a.f.f.a.4.T z %     9 L *.y.#.u     % u T -.f.j.y.a.y.a.f.j.a.*.L p O     9 T ,.a.X.u O   O e K -.f.f.y.y.y.y.y.a.a.a.",
"f.a.w.w.y.a.y.y.f.6./ v %     < m ` ,.[ u     % z ` 4.f.j.a.a.y.a.f.f.a.4.#.m O     2 m X.6.[ 2 O   % g W ,.a.a.y.y.y.y.a.a.f.f.",
"a.a.y.y.a.a.y.w.f.y.X.S -     - z L X.W u     % B *.6.a.f.a.a.y.y.a.a.y.y.6.L O     - p T -./ 2 O   - v ` 4.a.a.y.y.a.a.a.a.f.f.",
"a.y.y.a.f.f.f.a.w.y.,.W -     - u v L K 9     % L 4.w.y.f.a.a.y.y.y.y.y.f.f./ %     O 2 v ` T 2     < S #.6.a.a.f.f.a.a.a.a.y.y.",
"y.y.a.a.a.f.f.f.w.a.w.[ 2     O < e v v 2   O < / y.y.w.f.a.a.a.y.a.y.y.f.f.[ 2 O     % e S B <     9 / 4.y.a.a.a.a.a.a.a.y.y.w.",
"a.a.a.y.y.y.a.f.f.f.y.*.g 2 %     - p g -   - u [ f.a.w.a.a.y.a.y.a.a.y.f.f.X.u -       - g g %     u X.y.f.a.y.y.y.y.y.y.y.y.y.",
"a.a.a.a.y.y.a.a.a.f.f.*.S 9   O   O 2 9 - O 2 v -.y.b.f.y.w.a.a.f.f.y.y.f.a.X.m 9     O O 2 - O   - z #.f.f.w.f.y.y.a.y.y.y.y.a.",
"a.a.a.a.y.y.a.a.y.a.f.,.W p   O     O O     u K ,.y.f.a.6.w.a.f.f.f.a.y.f.a.*.K u         % % O O 9 B -.j.j.y.a.y.y.a.y.y.y.y.a.",
"a.a.a.a.y.y.a.a.y.a.a.4.[ v %             - v [ 4.y.f.a.w.y.a.a.a.a.y.y.a.a.,.` v %             - p T ,.f.f.y.y.y.a.a.a.y.y.a.a.",
"a.a.a.a.a.a.a.a.a.y.a.6.*.K <             - m #.6.y.f.f.f.f.a.y.y.y.y.w.y.a.6.*.B %   O         < B X.4.y.a.y.a.a.a.a.a.a.a.a.a.",
"y.a.a.a.a.a.a.a.a.y.a.y.6./ 2       O     - K 4.w.y.a.f.f.f.a.y.y.y.y.w.y.a.y.w.T -   O O %   O - K ,.y.a.a.a.a.a.a.a.a.a.a.a.a.",
"y.a.a.a.a.a.a.a.a.a.j.f.w./ <             < W f.a.a.y.y.y.a.a.a.a.a.a.a.a.f.f.f./ 2             < T w.a.a.a.y.y.a.a.y.a.a.a.a.a.",
"y.a.a.a.a.a.a.a.f.a.f.f.y.#.z 9 2 < < < < p ` f.f.a.y.w.y.y.y.a.a.a.a.a.a.f.j.f.X.g 2 < - < - - v X.y.f.a.a.y.y.a.y.y.y.a.a.a.a.",
"y.a.a.a.a.a.a.a.y.w.a.a.f.y.X.[ ` ` ` [ ` [ 4.b.a.y.a.a.a.a.y.y.y.y.y.y.y.a.a.a.y.[ ` [ ` [ [ ` X.w.j.f.a.a.a.f.a.y.y.y.a.a.a.y.",
"a.a.a.a.a.a.a.a.w.w.y.y.a.f.j.b.f.j.b.j.f.a.a.a.a.a.a.a.f.f.a.y.y.y.y.y.y.w.w.a.a.f.f.j.j.j.f.f.a.a.a.a.y.a.a.a.a.a.a.a.y.y.y.a.",
"a.a.a.a.a.a.a.a.y.y.a.a.y.y.f.j.a.f.f.j.f.a.a.y.y.y.a.a.y.y.y.y.a.a.a.f.a.w.y.a.a.a.f.f.f.f.f.f.a.a.a.a.y.a.a.a.a.a.a.a.y.y.y.a.",
"a.a.y.y.y.y.a.a.y.a.f.a.w.w.y.f.y.y.a.f.f.f.a.y.w.y.a.a.y.w.y.a.a.a.f.j.f.y.y.y.a.a.a.a.a.a.a.a.a.a.a.a.y.y.y.y.y.a.a.a.a.y.y.y.",
"a.a.a.y.y.a.a.a.a.a.a.a.y.w.y.a.y.y.y.a.a.a.a.y.y.a.a.a.y.y.a.a.y.a.a.f.a.y.y.y.a.a.y.y.y.y.a.a.a.a.a.a.y.y.y.y.y.a.a.a.a.a.y.y.",
"a.a.a.a.a.a.a.a.a.a.y.y.a.a.a.a.a.a.y.y.a.a.a.y.a.a.a.a.a.a.a.a.y.y.y.y.y.y.y.a.a.a.y.y.y.y.a.a.a.a.a.a.a.y.y.y.y.y.a.a.a.a.y.y.",
"a.a.a.a.a.a.a.a.a.y.y.y.f.f.a.a.f.a.y.y.y.a.a.a.a.a.y.y.a.a.a.y.a.a.y.y.y.a.f.a.a.a.y.y.y.y.a.a.y.a.a.a.a.a.y.y.y.y.a.a.a.a.a.a.",
"y.a.a.a.a.a.a.y.y.y.y.a.a.a.y.y.a.a.a.a.y.y.a.a.y.y.a.a.a.y.y.y.a.a.a.y.y.a.f.a.a.a.a.a.y.y.a.a.y.y.y.a.a.a.y.y.y.y.a.a.a.a.a.a.",
"y.y.a.a.a.a.y.y.w.y.a.a.a.y.w.w.y.a.a.a.y.y.a.f.w.a.f.f.a.y.y.a.a.f.a.y.y.a.a.y.a.a.a.a.a.y.y.y.y.y.y.a.a.a.y.y.y.y.a.a.y.y.a.a."
};
