/* XPM */
static char *d6eff4eb1ea74f9edc6796404240e5d4Gc6XcMw4JB8A1vPU[] = {
/* columns rows colors chars-per-pixel */
"64 64 45 1 ",
"  c gray11",
". c #293121",
"X c #313929",
"o c gray19",
"O c gray22",
"+ c #403018",
"@ c #483818",
"# c #543C1C",
"$ c #394A39",
"% c #5C4020",
"& c #425239",
"* c #6C4824",
"= c #744C28",
"- c gray25",
"; c #484848",
": c #4C4C4C",
"> c #525A4A",
", c gray33",
"< c gray36",
"1 c #5A6B52",
"2 c #637352",
"3 c #646464",
"4 c #6B7B63",
"5 c gray44",
"6 c #7C7C7C",
"7 c #885830",
"8 c #905C34",
"9 c #A0643C",
"0 c #A86840",
"q c #BC7848",
"w c #C87C4C",
"e c #738C6B",
"r c #849C7B",
"t c #D08050",
"y c #DC8854",
"u c #E88C58",
"i c #F0945C",
"p c #FCA470",
"a c gray55",
"s c #989898",
"d c gray66",
"f c #B4B4B4",
"g c #C8BFB2",
"h c #C0C0C0",
"j c #D0D0D0",
/* pixels */
"Orrrrrrrrrrrrrrsrrrrssrrrrrr Orrrrssssrrrrr Orrrrrrrrrrrr rssrr ",
"Orrsfjgffdrrrsss4rrrsfrr4rr1 Osrsrrsssrdfsr Orrrrrrsr4rr1 rddr2 ",
"Orffdduffr44rsfprrrrrdfrrrr1 Ofs4rrrsrrdsr2 Or4r44qyq044> djgr1 ",
"Odgdadqtu444rqyy44r4qwsrr44& Osr440qsrds41$ O4rr4900872>X 0ta5* ",
"Osdr0qttq04rswq00rr4qqsq041$ Odsr47044012>. O2sr998700r>. 795=- ",
"O4r00qwyq00wtddw0dd0qwq094>X Ofrwq900177>&. O2sstq0008==@ yia<- ",
"O14q0qydq0uywwsuwstq00097>$. Or17wwww7971&. Orsrtwwtq778% ws8%o ",
"Oua09qtqwqw0t00yt9qq9908=>$. Or=9ytw9=87=&. Orddyyutq098# 503;o ",
"Odsq00qaa0asq9999909780==4&. Oy9qyyt8=78=:O O12dqwq05a66; **#Oo ",
"O0t08056095s657=777==798=<=X Ow8000000998*+ O&1q0qwt006a;       ",
"Oww99977=:75===37==:=79978=X O0=8*=8q8=89=# O44tqws05355- rr41> ",
"Otq8977,=,:#*,38=====59975=X O0000995=709=% Ossysya0690=+ dfrr> ",
"Ow008=7853<<7879==8687087=*. Oqtq090500q8=@ Orrsays08441@ rrr5; ",
"Oa597895885998==79698798=*@+ Owyw07500087%@ Orrs0aaa544>@ q03:@ ",
"O337=7=***=%=35=75=**,=%%%++ O00==%=8====@+ O4rr065qarr4$ 08*-o ",
"O,:*--++@+o+@-;@@;%#+@@+@++  O*=#@+@#@#@+   Osr75daaaar2$ 83-o  ",
"O                            O              Oyr>4s008944$       ",
"441rr444>rs4e2>OOOOOOOOOOOOOOOOOOOOOOOOOOOOOOrs44t00981>$ ddsar4",
"12rr4rr442r211& OOrr44rrrdr4r44rOOO4sfr4r41>Ods44000781>$ rfsrr0",
"*8qr2421144444$ Orrsrrddsrrrrrr4&OOrjf44rr2$ rsr29q05821$ rdry0%",
"5060=>>>r09rr1$ Odrr44rsr4rrrs42$OOsf44448*- 4r400965821$ dgrq=,",
"aasq=7rr070r4>X 1r42404444rrqr4>X Osq7797=%@ 444r08=*=1>$ 447==0",
"0aw050r4==585>X 4r14rq4r410q042$X Or=%===#++ 1r42=*-35>$X >10==7",
"ssw095>0====5>X 1r0qqqqr4>8999>$X O7=@@++++  rfr>;*<a97:@ &4w9=q",
"ut08=8007==85=$ 4wqq00qr4>7909>>$ OO         jf2=5a0688&. 24q8=w",
"yuta8808==7787# 2q07787442779811& ss44rr44> O424000w0q9>X rdww8a",
"diid87987==87*@ >00=*75977==777>$ rsrrrr44> O28909500a8>X edstyy",
"ydd0==7=7==*==@ 40879657====789>X sr2rr441$ Ody90986581>X rrqdhu",
"du9*%795====41. 4987355687*=8a87$ fs40q91>$ Orq78950872>. sqsdsd",
"ud=*7q09===74>. 19=9=7089577900=$ ddq0q08>X O407706w=%41X rqq70u",
"yq770077=3784>$  97=77699900879=@ uq0=898>. O2==9qs0=*97. rq==qy",
"t0887778=7771&.  ==788879800877%@ q7=*==9=$ O2=80q07=58=+ uw99as",
"w97==958====>>X O=====8===887=%++ 90990=08$ Orpiq*=09697% w06qat",
"0873=<=7=*==1>X OO%#@@##@%*##@@+  8090q708X O4uu08wd66a3- d000sy",
"077=8=,====71$$ OOO               0q00=77*. O0i09tdd80a3# yhq6sd",
"q9=77===77791&X OOrsddfsr4rr1>>$OOyyt0*0*%% Owp0qwds6ws8% jhq0qs",
"007=%=,===77=*+ OOsffss4rr44241> Oudw7%8%%@ Ohj8==98asq5; dqq000",
"97%#==*=7897=;O OOrttw094444241& Ouy0888*=# Oii==0q9a08=- 5=000q",
"75%=73==78===%@ OO0wqq87882244>$ Oq0q80888, Oq879wt98aa5- dw0895",
"==*===**==%%%#+ OOq0787=8==89>$. O=90008a6* Ouw8qqw0=766- wq9=#=",
"O@@##@@O@+@+++  OO00<==*=%*==$.. O=0q0q87=% Ohd9ww83*=a5- 7<%++o",
"                OO9=*#@#@+@@++   Oq07qq7q8# Ohd907*=565=+ O     ",
"OOOOOOrr4144rr44rsO              Otq0090q7@ Ots5====55,;o O4r2>O",
"OOrrrsrr44444rrrssrr4442&OOOOOOOOOqww09q0=@ O75%#@##;-Oo  O458=O",
"OO4srr0r424r444rrrr4rr4>$ Orddr2OOww00009=@ OO            O27=%O",
"OOrsrrqrrre4r444rr4444>$. Orsr4> O09=%===%+ OOOOOOOOOOOOOOOOOOOO",
"OOryt00qrr44r40aqq442>>$X Otdw4> O=*#+@++++ OO4sdsss44sdds4rsrrO",
"OOdut09tqw0444s60004>>>$. Oqd0>$ OO         OO4fddr444rdsrrsr24 ",
"OOiq09qptuyr4rs080697=>$. O=0=$. O4rrr4r24r4OOghfrr4rrssddfrrr> ",
"OOq000wpttq4re995060==>>X O95=-+ Orsrr44r42> Ofdsr44rrwrrrr22>& ",
"OO0wqqqytq0000908ass9=>1$ O9=@++ Orrr4112==@ Oggr4r44tw4r4141>$ ",
"OO0qw00090q89qawasa8991$$ OO     O8=**%#%@++ Odssq6q0twwr1>441$ ",
"OOqq0098007855tqs69885>$X OOOOOOOO           Orrddytaqtw9885=>$ ",
"OOqq9qq9q88q5305888809=>X Or4r4442>4rrddrsr>OOrtsdidy3w0=3508>X ",
"OOyuw0q0qqqs67978955087>X O4rrrsdr>4rrsdr441 Oiydidyddd7*<593>X ",
"OOttqq09qt689=87555=3==>$ O44ryrrr4rr4444>4> Oypiitts90=<7798&. ",
"OOww0800q98655=<588===81. O4dtw0rr40r114r44$ Otpwwq6=733<=5093- ",
"OO08*8qq0780787<77==007#. Ordd099w09974r41>X Opu9ty0%=*,55998=- ",
"OO077w008=7877==777700%@. Opiyw09ys8777901>X Opy0dt6=73337969=@ ",
"OOdq9077===7====597799*=$ Oittww0wyq8790041$ Oppadw6753==79007# ",
"OOdq9==787887=7895=80977$ Otywqqqqt078q0844X Oiuqsa065==80000=@ ",
"OO0887==77=7877587887=73@ Otdsqqqqwq089=*=#+ O0089008===79709=+ ",
"OO=89===%%=77=*77887=%=:+ O0q098555=%#%==#++OOaa==7=%#%=<==3=++O",
"::87=,%#%#%%**#%%,,%%@@@O::897=*,,%#@%#@#@+o::s6%%%;%%%%##%#@@@-"
};
