/* XPM */
static char *cd352b55c683472b92b1b856134038617DIx7ymAOQFIg4aO[] = {
/* columns rows colors chars-per-pixel */
"64 64 49 1 ",
"  c gray11",
". c #293129",
"X c gray19",
"o c #313931",
"O c gray22",
"+ c #403018",
"@ c #483818",
"# c #543C1C",
"$ c #044C00",
"% c #045800",
"& c #046400",
"* c #394A39",
"= c #5C4020",
"- c #425239",
"; c #6C4824",
": c #744C28",
"> c gray25",
", c #484848",
"< c #4C4C4C",
"1 c #4A5242",
"2 c #525A4A",
"3 c gray33",
"4 c gray36",
"5 c #5A6B52",
"6 c #637352",
"7 c #646464",
"8 c #6B7B63",
"9 c gray44",
"0 c #7C7C7C",
"q c #885830",
"w c #905C34",
"e c #A0643C",
"r c #A86840",
"t c #BC7848",
"y c #C87C4C",
"u c #738C6B",
"i c #849C7B",
"p c #D08050",
"a c #DC8854",
"s c #E88C58",
"d c #F0945C",
"f c #FCA470",
"g c gray55",
"h c #989898",
"j c gray66",
"k c #B4B4B4",
"l c #C8BFB2",
"z c #C0C0C0",
"x c #D0D0D0",
/* pixels */
"Oiiiiiiiiiiiiiiiiiiiiu Oiiiiiiiiiiihiiiiiiiiiiiiiiiu Oiiiiiiii6 ",
"Oujiuuuijiuu6ijjjjuji6 Ouui6iiiijiijjijjijiiijiiiuu6 Oijuiiuii6 ",
"Oikjuiihkziuuiihhkjiu- Oewi8u6uiiiu0pjshgipsjyyui665 Oik6u66i6- ",
" gkhi8rtjdi8iiiighhu6- Ottw5528wereqwrww:ereww0ew:,> Ohkirtr851 ",
" sjhi8rrtpyi8iyaaa8--& Oew-&%%###>===#@@==<;=#=@@+++ Oigrwteq5* ",
" dhhhytrpsyi8gpapy8iu1 O                             Ohheqq:w5* ",
" yyhjayrttrpyryppgri51 Ouu66uuuiiiiiu-uu66-OOOOOOOOOOOdterqet5. ",
" ppyjdytr::ttrtte:e52* Ouuuijiuijiiu66uu65% Oiiiiuu-OOyerteryq+ ",
" zjjjjjr;wtjyrw:qrt52* O6--ihhghj8566ui6-6% Ojjijuu- Oyryyrweq# ",
" fatgyjr:gtghrwq:er85* O12rhiih888888ii882* Ouuiiu5& Oxatrrte:+ ",
" ppt0ggrwg0ggw:qqer55o O2iyj85wwyttyh88i52* Ouuji51* Ojatwrye:+ ",
" ypt90yttregr:;:ereww# Ogpytrqrtytpjhttu52o Og8yeq2* Orytette;@ ",
" th09htrreeqereqwree:@ Osjjapgrypphhtyy521. Okgrww2* Ottytreq=+ ",
" thggrew::::rtreerrq=@ Oetggywgphg9gerrq51o Ojyrrq:@ Orreq::;++ ",
" rr::=::==#=q43qqqq;#+ Oqe0rhrrt0ewerewq22* Ottpr::@ O:::#@@++  ",
" ::@@++@+@@+@@@####+++ Odfhhhyrqqqqqweqqq2* Optjhq:# O          ",
"                       Osjyr0tr::qqqw9qqr5* Odahtw;+ OOOOOOOOOOO",
"jh8-6656--uuu6-- ijji6- hsjhtr9r4::qeqeee:= Ofdrrw=+ O66-1 gg5ik",
"fj86uu66uuuuu6-& iijiu5 rtrggeq09qq:w99w94# Ortrrq#+ O6i61 gk8af",
"ttyiiit56uuuu6-- 6ji881 yre:weq:w:::79eq44> Orrw:;++ O585= fh5tr",
":ra858tttypii85* jhg82o rw:;:::::;;:=;;>=>X O0e:=O++ Oqw:@ st:w;",
"rth58pytaytr552. kha82o 5:=>#==#@+@@+X+XX   Oq:#++XX O:3#+ errrt",
"tpgphsytrq:;:52. jdhq;.                     O             Orttty",
"rhaaaypryw;:q82o hatw;. OOOOOOOOOOOOOOOOOOOOOOOOOhhihi85*OOeysap",
"rtdyytprtq:qe82o aawe;. Ouui66u8uuuiu66688hji66OOigjg885* Oryprt",
"rpptytr:;:w99q2* tteq=+ Oliu6iiihuii65u-28iji6- Oh8ii585* Oyrrrr",
"ydaatqew:errww5* eeq:@X Oiuu568uu8gu5585gjpi66& Ojgt8882* Otpttt",
"tsssyteq:ee9:q2* =:=++X Ohh0r585qrt88528yr0858* Oiir5522. Orthrr",
"eetsrqeq:qq#;wq=        Ohg0r82580riu852t::q52* O88erew5o Oetapp",
"rrjyqwrrq:q#qw:= OOOOOOOOjgpe*15igwew7:wrer0q*o Ogitgte2o Oaptrr",
"yppwqeew:4eqee:# iiii6-OOjjt:388ur;;::reqtgrq*o Oiyrgte2o Ofayrr",
"par:wrewqww:qrq= ijjiu- O85q:e000e;:wew:e0eeq1. Orptreq2* Osarrr",
"yp::rtrq:q:::e:# dkhi81 O5i:::w9eq3:wq;;9q9eq*o Oasteeq*o Oaywtt",
"treqwqq::::q:w:> yfdi5o O8ae:w00w::3;:=:;:0r:=+ Ospterq*. Oprwra",
"pe:q:qq::qew=qq= ayj8*. O8tq=errq:=:qw:::e0ew;+ Oayreeq*. Oyrryp",
"ye:::::::qe9qr:# tsr2o. Ohtr:4ere9::wq;qqqee:=+ Owww:eq2. Ottyhy",
"ew:q:q:wqwerrrq# yrq*o. Oigwqq9we9;;::::;::;#@+ O::q9wq2o Otttrr",
"rq;wwqqwwewrrw;# prw=*o O::3<=#,,#++@+#+@+++++  Owt09w::. Otptew",
"re:weq:qwwweq;++ prqq:@ O                       Oe909ge:. Ojtreq",
"wwq:w:::::::==@+ drrr:@ OOOOOOOOOOOOOOOOOOOOOOOOOywetrr7o Otrqqq",
"=@#+##@@@>##+@O+ xaye4@ Ou-5uiiu66uu6uuiiuiuu5-OOrrrhrr:* O::=#=",
"                Ozdtw=+ Ouuuiiiu666uuuuuuuu66-& Oyaytee:* O     ",
"OOOOO-uiiui6-i5OOdytq;+ O6iiigu6656ihirrr88852* Oysyarq:* Oig52 ",
"O8ihh6iiuuiuu65OOwqr:#+ O8itgpi88u8urttww58852* Opaptrq:* Ojj82 ",
"Ohhg5585266-u6& Org:#++ Ozg0hji8iih80trreeeqe2. Oppyreq;+ Oi85* ",
"Osfy:822ii86-&$ O:;#+   Ozirtjspiggttrttrrqqq2o Orree:#++ O:21o ",
"Ozsw=w158555-&$ O       O8ittpsdi85rgtrqwq:::2o Owq;=+++  Ow:;. ",
"Oatrww:rr85881$ OOOOOOOOO:ytysptq:weqwreeqq472* O         Oq:#+ ",
"Orpetrrpjr8521% Oui6--5OOparyhyj:wr0w:ww:::wr5* OOOOOOOOOOOOOOO ",
"Oryttejjyq5251. Oiu65-- Osaeqrptrrtrwqqq:;qee2o Ou6uuuu66iiiu6- ",
"Otptyeerrw55u2o Ouii5-& Ojpqe0grrttew9q::;;::*. Oiiuuuu6ujju5-- ",
"Oreyywpyrqww85* Ohjiu6& Ojjrthrwee=:qqq:::;=,X+ Oujuuuy6uuuu--& ",
"Ortrrtatq=:q11* Oihri8* Oghrrr9rrq:wrrq;::904=@ O8i88rtyteq:=*o ",
"Oyatraateq::<1* Ohyt8*. Orgttrrtrwrtre:::::0w:# Oii8rtttrr09q*. ",
"Oayyassatq::42* Orgt5*. Otyptygrwrrteeq::4::qq= O8aptrtttrr0e2o ",
"Oyeqtpdarq;:74= Ortr:*. Ortrqeyyrtrrrreq3:qqq:> Oiateeereweeq2- ",
"Orretrtyweww43> Otpr4<. Otdajrrtrrrqwwq::;:::3# Oytwwetr:w0ee8- ",
"Oratyprtrw9r97< Otsg74. Osarjtegtreq:q:::::q93@ Otrwwwrrqqgwqq= ",
"Otyrrrwwhg00r0< Oyarq:. Oajjpyrrr:::qeqwwqq99:+ Oytqqq:wq;wq::@ ",
"Oppteerer00q09> Ojfye:. Ortrheqwq:::qeqq:qe9:;O Oarqqerrew0r9q@ ",
"Oyptertrtr0rr4# Oyyq:;+ Otrrrrewqwqqqewqqwwe:;+ Ozaeqrrtttrwr:+ ",
"Orrrretrq:w004> Owt::=+ Ottt0rqq:qw::::qw::w7:O Oyprw:9rrrw:9:+ ",
"Orewww:3::::;,XOOet03#+OO0qqqq:;::::==;:=;<<:=OOOtr9:=:qw::=@#+ ",
"<q::::=;;=;==>O<<;:3,@X<<r:;===#=##==#=#@=>>#OO<<er:====3;@@++XO"
};
